<?xml version="1.0" encoding="UTF-8" standalone="no"?>
<svg
   width="115"
   height="75"
   viewBox="0 0 115 75"
   fill="none"
   version="1.1"
   id="svg88"
   sodipodi:docname="FanOn_final.svg"
   inkscape:version="1.1 (c68e22c387, 2021-05-23)"
   xmlns:inkscape="http://www.inkscape.org/namespaces/inkscape"
   xmlns:sodipodi="http://sodipodi.sourceforge.net/DTD/sodipodi-0.dtd"
   xmlns="http://www.w3.org/2000/svg"
   xmlns:svg="http://www.w3.org/2000/svg">
  <sodipodi:namedview
     id="namedview90"
     pagecolor="#505050"
     bordercolor="#eeeeee"
     borderopacity="1"
     inkscape:pageshadow="0"
     inkscape:pageopacity="0"
     inkscape:pagecheckerboard="0"
     showgrid="false"
     inkscape:zoom="3.7405949"
     inkscape:cx="17.510584"
     inkscape:cy="-2.0050287"
     inkscape:window-width="1920"
     inkscape:window-height="1017"
     inkscape:window-x="-8"
     inkscape:window-y="-8"
     inkscape:window-maximized="1"
     inkscape:current-layer="g22003" />
  <style
     id="style920">
    @import url(mystyles.css);
  </style>
  <g
     id="FanOn_final 1"
     transform="translate(28)">
    <g
       id="Q_ON 1">
      <g
         id="g22003"
         transform="translate(-12)">
        <g
           id="layer2">
          <path
             id="path12903"
             d="m 76.7461,33.462 c 0,8.404 -3.3074,16.4705 -9.2077,22.4554 C 61.6383,61.902 53.6201,65.324 45.2167,65.4437 36.8136,65.5634 28.701,62.3706 22.6328,56.5564 16.5648,50.7422 13.0289,42.773 12.7897,34.3725 12.5505,25.9719 15.6272,17.8146 21.3546,11.6644 27.0821,5.5142 34.9997,1.86528 43.3961,1.50654 51.7925,1.14778 59.9929,4.10809 66.2239,9.74734 72.4551,15.3866 76.2163,23.2517 76.6945,31.6421"
             fill="#3f4c40" />
        </g>
        <g
           id="layer4">
          <path
             id="rect29661"
             d="m 62.0375,58.9958 c -6.2646,1.085 -10.2518,0.1333 -17.2222,0.1707 -6.2336,0.0301 -9.8258,0.6733 -15.6167,-0.1457 C 22.1954,63.6201 15.2469,68.1789 12,70.8667 L 81,70.7053 C 79.4433,69.6522 78.1459,68.6251 75.7447,67.0366 73.108,65.2924 69.1405,62.8713 62.0375,58.9958 Z"
             fill="url(#paint0_linear_125_2)"
             stroke="#ffffff"
             stroke-width="0.316358"
             stroke-linecap="square"
             style="fill:url(#paint0_linear_125_2)" />
        </g>
        <g
           id="layer1">
          <path
             id="rect6772"
             opacity="0.801282"
             d="m 63.5112,51.6837 c -3.3198,5.8161 -7.6101,6.9305 -11.2677,7.1193 -0.6679,0.0345 -1.6753,-0.0745 -2.2675,-0.0732 -0.8911,-0.5089 -1.475,-1.2502 -1.2515,-2.2345 2.1278,-6.1714 1.4096,-11.8555 -0.8357,-17.373 1.5942,-1.063 2.5556,-2.3222 3.3071,-3.6462 3.5081,1.7193 5.6432,4.2923 7.9543,6.756 2.0226,2.8998 4.0586,5.8671 4.3613,9.4519 z"
             fill="#39ab40" />
          <path
             id="path9203"
             opacity="0.801282"
             d="m 26.1805,14.4981 c 3.3201,-5.81619 7.6101,-6.93052 11.2681,-7.11942 0.6675,-0.03446 1.6749,0.07464 2.2671,0.07378 0.8911,0.50888 1.4754,1.25006 1.2515,2.2343 -2.1278,6.17134 -1.4096,11.85544 0.8357,17.37294 -1.5942,1.0631 -2.5556,2.3222 -3.3071,3.6463 -3.5082,-1.719 -5.6432,-4.2923 -7.9543,-6.7561 -2.0226,-2.8996 -4.0586,-5.867 -4.361,-9.4518 z"
             fill="#39ab40" />
          <path
             id="path9205"
             opacity="0.801282"
             d="m 19.2664,39.8463 c -3.398,-5.7709 -2.2334,-10.0479 -0.58,-13.316 0.3018,-0.5965 0.897,-1.4166 1.1905,-1.9309 0.8844,-0.5205 1.8179,-0.6592 2.5608,0.024 4.2986,4.9125 9.5884,7.1137 15.4922,7.9063 0.1305,1.9118 0.7455,3.3717 1.5213,4.6818 -3.2348,2.1905 -6.5289,2.7649 -9.8154,3.5462 -3.5212,0.3147 -7.1079,0.607 -10.3694,-0.9114 z"
             fill="#39ab40" />
          <path
             id="path9207"
             opacity="0.801282"
             d="m 69.7159,26.9286 c 3.3979,5.7709 2.2332,10.0479 0.5798,13.316 -0.3018,0.5967 -0.8968,1.4165 -1.1904,1.9308 -0.8845,0.5206 -1.8177,0.6593 -2.561,-0.0237 -4.2986,-4.9127 -9.588,-7.1136 -15.4922,-7.9065 -0.1305,-1.9118 -0.7455,-3.3717 -1.5213,-4.6818 3.2352,-2.1902 6.5289,-2.7646 9.8154,-3.546 3.5215,-0.3147 7.1082,-0.6073 10.3697,0.9112 z"
             fill="#39ab40" />
          <path
             id="path9209"
             opacity="0.801282"
             d="m 51.34,7.64614 c 6.6964,-0.09339 9.835,3.03666 11.8551,6.09186 0.3687,0.5576 0.786,1.4811 1.0878,1.9906 0.014,1.0261 -0.3277,1.9057 -1.2892,2.2127 -6.3969,1.301 -10.9289,4.806 -14.5422,9.5421 C 46.7263,26.65 45.1533,26.461 43.6311,26.4863 43.3305,22.5911 44.463,19.445 45.4121,16.2031 46.883,12.9883 48.4053,9.72748 51.34,7.64643 Z"
             fill="#39ab40" />
          <path
             id="path9211"
             opacity="0.801282"
             d="m 38.081,58.6234 c -6.6965,0.0934 -9.8351,-3.0366 -11.8552,-6.0916 -0.3686,-0.5577 -0.786,-1.4811 -1.0875,-1.9907 -0.0142,-1.026 0.3275,-1.9057 1.2892,-2.2126 6.3969,-1.3012 10.9289,-4.8062 14.5419,-9.5422 1.7253,0.8335 3.2982,1.0223 4.8208,0.997 0.3002,3.8954 -0.8322,7.0413 -1.7813,10.2831 -1.471,3.215 -2.9933,6.4758 -5.9279,8.5567 z"
             fill="#39ab40" />
          <path
             id="path9235"
             opacity="0.801282"
             d="m 38.6643,36.3067 c -0.831,-1.5764 -1.008,-3.416 -0.4931,-5.1219 0.5149,-1.7057 1.6806,-3.1402 3.245,-3.9933 1.5641,-0.8533 3.4015,-1.0566 5.1144,-0.5659 1.7129,0.4905 3.1639,1.6356 4.0392,3.1876 0.8753,1.5521 1.1046,3.386 0.6384,5.1059 -0.4661,1.7195 -1.5903,3.1867 -3.1297,4.0842 -1.5394,0.8971 -3.3701,1.1527 -5.0963,0.7109 C 41.256,39.2727 39.773,38.1694 38.854,36.6431"
             fill="#b0d6b2" />
          <path
             id="rect9339"
             opacity="0.801282"
             d="M 46.0255,38.5441 47.2,38.1036 c 0.2144,-0.0805 0.3287,-0.3211 0.2559,-0.5381 -0.0728,-0.2169 -0.3059,-0.3274 -0.52,-0.247 l -1.1745,0.4405 c -0.2141,0.0801 -0.3288,0.3211 -0.2559,0.5381 0.0731,0.2169 0.3059,0.3274 0.52,0.247 z"
             fill="#ececec" />
          <path
             id="rect9339-8"
             opacity="0.801282"
             d="m 42.6788,28.5662 1.1746,-0.4405 c 0.2141,-0.0805 0.3287,-0.3215 0.2559,-0.5384 -0.0732,-0.2166 -0.306,-0.3274 -0.52,-0.247 l -1.1746,0.4405 c -0.2144,0.0804 -0.3287,0.3214 -0.2559,0.5381 0.0729,0.2169 0.3059,0.3274 0.52,0.2473 z"
             fill="#ececec" />
          <path
             id="path11875"
             opacity="0.801282"
             d="m 40.92,35.0616 c -0.5118,-0.9706 -0.6207,-2.1037 -0.3037,-3.1545 0.3173,-1.0504 1.0349,-1.9339 1.9982,-2.4593 0.9637,-0.5254 2.0949,-0.6504 3.15,-0.3483 1.0549,0.3021 1.9482,1.0073 2.4875,1.9631 0.539,0.9557 0.6803,2.0853 0.3934,3.1443 -0.2873,1.0592 -0.9798,1.9627 -1.9277,2.5153 -0.9481,0.5526 -2.0755,0.71 -3.1386,0.438 -1.0631,-0.272 -1.9764,-0.9516 -2.5423,-1.8915"
             fill="#494949" />
          <path
             id="path11966"
             opacity="0.801282"
             d="m 42.4904,34.2337 c -0.2942,-0.5579 -0.3569,-1.2093 -0.1745,-1.8133 0.1824,-0.6042 0.595,-1.1121 1.1489,-1.4142 0.5539,-0.3021 1.2043,-0.374 1.8111,-0.2002 0.6064,0.1736 1.1201,0.5792 1.4301,1.1287 0.31,0.5494 0.3911,1.1989 0.2261,1.8079 -0.165,0.609 -0.5633,1.1283 -1.1084,1.4463 -0.545,0.3176 -1.1932,0.4078 -1.8044,0.2517 -0.6112,-0.1564 -1.1362,-0.5472 -1.4618,-1.0878"
             fill="#ececec" />
        </g>
        <path
           id="rect15660"
           d="m 51.7754,2.23727 h 42.426 V 22.5118 H 70.3134 C 65.9835,11.628 59.8903,4.67731 51.7754,2.23727 Z"
           fill="url(#paint1_linear_125_2)"
           stroke="#ffffff"
           stroke-width="0.316678"
           style="fill:url(#paint1_linear_125_2)" />
        <path
           id="rect26505"
           d="M 97.6608,0.593384 H 92.9107 V 24.3443 h 4.7501 z"
           fill="url(#paint2_linear_125_2)"
           stroke="#ffffff"
           stroke-width="0.359069"
           stroke-linecap="square"
           style="fill:url(#paint2_linear_125_2)" />
        <path
           id="rect15660-1"
           d="M 34.2372,59.90863 H -8.1888 V 39.6341 h 23.888 c 4.3299,10.8838 10.4231,17.83449 18.538,20.27453 z"
           fill="url(#paint1_linear_125_2)"
           stroke="#ffffff"
           stroke-width="0.316678"
           style="fill:url(#paint1_linear_125_2-1)" />
        <path
           id="rect26505-9"
           d="m -11.6482,61.552516 h 4.7501 V 37.8016 h -4.7501 z"
           fill="url(#paint2_linear_125_2)"
           stroke="#ffffff"
           stroke-width="0.359069"
           stroke-linecap="square"
           style="fill:url(#paint2_linear_125_2-2)" />
        <g
           id="layer5">
          <path
             id="rect6140"
             opacity="0.801282"
             d="M 68.001,12.247 H 21.8122 v 0.947 H 68.001 Z"
             stroke="#323634"
             stroke-width="0.349553"
             stroke-linecap="square" />
          <path
             id="rect6140-0"
             opacity="0.801282"
             d="M 70.5275,15.4621 H 18.5019 v 1.0849 h 52.0256 z"
             stroke="#323634"
             stroke-width="0.356779"
             stroke-linecap="square" />
          <path
             id="rect6140-5"
             opacity="0.801282"
             d="M 72.8738,18.7152 H 16.9395 v 1.1468 h 55.9343 z"
             stroke="#323634"
             stroke-width="0.359069"
             stroke-linecap="square" />
          <path
             id="rect6140-6"
             opacity="0.801282"
             d="M 73.6544,21.9589 H 15.0393 v 1.2275 h 58.6151 z"
             stroke="#323634"
             stroke-width="0.356124"
             stroke-linecap="square" />
          <path
             id="rect6140-8"
             opacity="0.801282"
             d="M 74.8834,25.2251 H 14.1462 v 1.2632 h 60.7372 z"
             stroke="#323634"
             stroke-width="0.357064"
             stroke-linecap="square" />
          <path
             id="rect6140-4"
             opacity="0.801282"
             d="M 75.4414,28.4927 H 13.3642 v 1.2959 h 62.0772 z"
             stroke="#323634"
             stroke-width="0.356545"
             stroke-linecap="square" />
          <path
             id="rect6140-2"
             opacity="0.801282"
             d="M 75.7207,31.7735 H 13.1968 v 1.3025 h 62.5239 z"
             stroke="#323634"
             stroke-width="0.356836"
             stroke-linecap="square" />
          <path
             id="rect6140-9"
             opacity="0.801282"
             d="M 75.4411,35.0536 H 13.0287 v 1.3105 h 62.4124 z"
             stroke="#323634"
             stroke-width="0.355728"
             stroke-linecap="square" />
          <path
             id="rect6140-0-6"
             opacity="0.801282"
             d="M 75.1064,38.3519 H 13.6992 v 1.2822 h 61.4072 z"
             stroke="#323634"
             stroke-width="0.35652"
             stroke-linecap="square" />
          <path
             id="rect6140-5-1"
             opacity="0.801282"
             d="M 74.4363,41.6519 H 14.4811 v 1.25 h 59.9552 z"
             stroke="#323634"
             stroke-width="0.356754"
             stroke-linecap="square" />
          <path
             id="rect6140-6-5"
             opacity="0.801282"
             d="M 73.3384,44.978 H 16.4749 v 1.166 h 56.8635 z"
             stroke="#323634"
             stroke-width="0.350341"
             stroke-linecap="square" />
          <path
             id="rect6140-8-7"
             opacity="0.801282"
             d="M 71.7394,48.2949 H 18.0737 v 1.1002 h 53.6657 z"
             stroke="#323634"
             stroke-width="0.345886"
             stroke-linecap="square" />
          <path
             id="rect6140-4-1"
             opacity="0.801282"
             d="M 69.8106,51.6185 H 20.0027 v 1.0213 h 49.8079 z"
             stroke="#323634"
             stroke-width="0.351304"
             stroke-linecap="square" />
          <path
             id="rect6140-2-3"
             opacity="0.801282"
             d="M 67.1967,54.9562 H 22.6166 v 0.914 h 44.5801 z"
             stroke="#323634"
             stroke-width="0.34803"
             stroke-linecap="square" />
          <path
             id="rect6383"
             opacity="0.801282"
             d="m 23.1797,11.8874 -0.1451,44.2159 0.9064,0.0028 0.1453,-44.2158 z"
             stroke="#323634"
             stroke-width="0.347713"
             stroke-linecap="square" />
          <path
             id="rect6385"
             opacity="0.801282"
             d="M 26.4139,8.99585 26.2495,59.0157 27.2749,59.0192 27.4393,8.99924 Z"
             stroke="#323634"
             stroke-width="0.352026"
             stroke-linecap="square" />
          <path
             id="rect6387"
             opacity="0.801282"
             d="m 29.9214,7.07874 -0.177,53.85896 1.1043,0.0038 0.1767,-53.85916 z"
             stroke="#323634"
             stroke-width="0.352074"
             stroke-linecap="square" />
          <path
             id="rect6389"
             opacity="0.801282"
             d="M 33.1167,5.66565 32.9308,62.3716 34.0933,62.3754 34.2796,5.66945 Z"
             stroke="#323634"
             stroke-width="0.352074"
             stroke-linecap="square" />
          <path
             id="rect6391"
             opacity="0.801282"
             d="m 36.319,4.63586 -0.1929,58.78674 1.205,0.0038 0.1931,-58.78658 z"
             stroke="#323634"
             stroke-width="0.352074"
             stroke-linecap="square" />
          <path
             id="rect6393"
             opacity="0.801282"
             d="M 39.538,2.78159 39.3445,63.803 40.5523,63.8071 40.7458,2.7857 Z"
             stroke="#323634"
             stroke-width="0.352074"
             stroke-linecap="square" />
          <path
             id="rect6395"
             opacity="0.801282"
             d="M 42.5743,3.03967 42.3751,64.4009 43.619,64.4053 43.8182,3.04382 Z"
             stroke="#323634"
             stroke-width="0.352074"
             stroke-linecap="square" />
          <path
             id="rect6397"
             opacity="0.801282"
             d="M 45.9669,3.1734 45.769,64.1798 47.0037,64.1839 47.2013,3.17749 Z"
             stroke="#323634"
             stroke-width="0.352074"
             stroke-linecap="square" />
          <path
             id="rect6399"
             opacity="0.801282"
             d="m 49.3579,3.77808 -0.1967,59.92922 1.2284,0.0038 0.197,-59.929 z"
             stroke="#323634"
             stroke-width="0.352074"
             stroke-linecap="square" />
          <path
             id="rect6401"
             opacity="0.801282"
             d="M 52.4214,3.59116 52.2292,63.0116 53.4291,63.0157 53.6213,3.59518 Z"
             stroke="#323634"
             stroke-width="0.352074"
             stroke-linecap="square" />
          <path
             id="rect6403"
             opacity="0.801282"
             d="M 55.6408,4.80811 55.4482,62.2129 56.65,62.2167 56.8426,4.81197 Z"
             stroke="#323634"
             stroke-width="0.352074"
             stroke-linecap="square" />
          <path
             id="rect6405"
             opacity="0.801282"
             d="m 59.2015,6.05893 -0.1846,54.60487 1.1514,0.0038 0.1843,-54.605 z"
             stroke="#323634"
             stroke-width="0.352967"
             stroke-linecap="square" />
          <path
             id="rect6407"
             opacity="0.801282"
             d="m 62.5156,7.83151 -0.173,51.16079 1.0796,0.0035 0.1729,-51.16083 z"
             stroke="#323634"
             stroke-width="0.359069"
             stroke-linecap="square" />
          <path
             id="rect6409"
             opacity="0.801282"
             d="m 65.8518,10.8582 -0.153,45.6833 0.9551,0.0032 0.153,-45.6834 z"
             stroke="#323634"
             stroke-width="0.359069"
             stroke-linecap="square" />
        </g>
        <g
           id="layer3">
          <path
             id="path13010"
             d="M 45.6888,1.37779 C 44.8987,1.35284 44.1083,1.35718 43.3188,1.39078 34.9221,1.74951 27.0042,5.39853 21.2769,11.5489 c -5.7274,6.1503 -8.804,14.3077 -8.5647,22.7083 0.2393,8.4009 3.7752,16.3697 9.8433,22.184 6.0682,5.8145 14.1808,9.0066 22.5842,8.8869 8.4031,-0.1194 16.4214,-3.5417 22.3214,-9.5263 5.9,-5.9846 9.2078,-14.051 9.2078,-22.455 l -0.052,-1.8203 C 76.1619,23.5452 72.7348,16.0236 67.0102,10.4434 61.2859,4.86319 53.6793,1.62892 45.6888,1.37779 Z M 45.5644,5.3344 c 7.0014,0.22 13.6669,3.05389 18.6827,7.9435 5.0162,4.8895 8.0193,11.4802 8.418,18.4738 l 0.0453,1.5951 c 0,7.364 -2.8983,14.4319 -8.068,19.6761 -5.1698,5.2439 -12.196,8.2425 -19.559,8.3474 C 37.72,61.4751 30.6112,58.6779 25.2941,53.5828 19.9771,48.4881 16.8789,41.505 16.6695,34.1442 16.4598,26.783 19.1558,19.6353 24.1743,14.2463 29.1928,8.85723 36.1309,5.65986 43.4882,5.34555 44.1799,5.3162 44.8725,5.31249 45.5644,5.3344 Z"
             fill="#46e453" />
        </g>
        <path
           id="path1044"
           d="m 44.6846,60.618 c 15.2477,0 27.6083,-12.179 27.6083,-27.2025 0,-15.0235 -12.3606,-27.20246 -27.6083,-27.20246 -15.2476,0 -27.6082,12.17896 -27.6082,27.20246 0,15.0235 12.3606,27.2025 27.6082,27.2025 z"
           stroke="url(#paint3_linear_125_2)"
           stroke-width="9.41897"
           style="stroke:url(#paint3_linear_125_2)" />
        <path
           id="path18314"
           d="m 44.639,65.4717 c 17.9311,0 32.4672,-14.3062 32.4672,-31.9537 0,-17.6476 -14.5361,-31.95373 -32.4672,-31.95373 -17.9312,0 -32.4673,14.30613 -32.4673,31.95373 0,17.6475 14.5361,31.9537 32.4673,31.9537 z"
           stroke="#ffffff"
           stroke-width="0.373158" />
        <path
           id="path18314-2"
           d="m 44.8548,55.8341 c 12.6905,0 22.9781,-10.0237 22.9781,-22.3885 0,-12.3648 -10.2876,-22.3884 -22.9781,-22.3884 -12.6904,0 -22.9781,10.0236 -22.9781,22.3884 0,12.3648 10.2877,22.3885 22.9781,22.3885 z"
           stroke="#e7f400"
           stroke-width="0.52112" />
      </g>
    </g>
  </g>
  <defs
     id="defs86">
    <linearGradient
       id="paint0_linear_125_2"
       x1="11.6256"
       y1="64.926102"
       x2="81.425903"
       y2="64.926102"
       gradientUnits="userSpaceOnUse">
      <stop
         stop-color="#A7A7A7"
         id="stop58" />
      <stop
         offset="0.476808"
         stop-color="#E9E9E9"
         stop-opacity="0.992157"
         id="stop60" />
      <stop
         offset="1"
         stop-color="#A7A7A7"
         id="stop62" />
    </linearGradient>
    <linearGradient
       id="paint1_linear_125_2"
       x1="77.805397"
       y1="22.378599"
       x2="77.805397"
       y2="2.74456"
       gradientUnits="userSpaceOnUse">
      <stop
         stop-color="#A7A7A7"
         id="stop65" />
      <stop
         offset="0.476808"
         stop-color="#E9E9E9"
         stop-opacity="0.992157"
         id="stop67" />
      <stop
         offset="1"
         stop-color="#A7A7A7"
         id="stop69" />
    </linearGradient>
    <linearGradient
       id="paint2_linear_125_2"
       x1="95.127403"
       y1="1.38508"
       x2="95.285797"
       y2="23.710899"
       gradientUnits="userSpaceOnUse">
      <stop
         stop-color="#A7A7A7"
         id="stop72" />
      <stop
         offset="0.3079"
         stop-color="white"
         id="stop74" />
      <stop
         offset="1"
         stop-color="#A7A7A7"
         id="stop76" />
    </linearGradient>
    <linearGradient
       id="paint3_linear_125_2"
       x1="17.076401"
       y1="33.415501"
       x2="72.2929"
       y2="33.415501"
       gradientUnits="userSpaceOnUse">
      <stop
         stop-color="#A7A7A7"
         id="stop79" />
      <stop
         offset="0.3079"
         stop-color="white"
         id="stop81" />
      <stop
         offset="1"
         stop-color="#A8A8A8"
         id="stop83" />
    </linearGradient>
    <linearGradient
       id="paint1_linear_125_2-1"
       x1="77.805397"
       y1="22.378599"
       x2="77.805397"
       y2="2.74456"
       gradientUnits="userSpaceOnUse"
       gradientTransform="rotate(180,43.006302,31.07295)">
      <stop
         stop-color="#A7A7A7"
         id="stop65-0" />
      <stop
         offset="0.476808"
         stop-color="#E9E9E9"
         stop-opacity="0.992157"
         id="stop67-1" />
      <stop
         offset="1"
         stop-color="#A7A7A7"
         id="stop69-2" />
    </linearGradient>
    <linearGradient
       id="paint2_linear_125_2-2"
       x1="95.127403"
       y1="1.38508"
       x2="95.285797"
       y2="23.710899"
       gradientUnits="userSpaceOnUse"
       gradientTransform="rotate(180,43.006299,31.07295)">
      <stop
         stop-color="#A7A7A7"
         id="stop72-6" />
      <stop
         offset="0.3079"
         stop-color="white"
         id="stop74-1" />
      <stop
         offset="1"
         stop-color="#A7A7A7"
         id="stop76-3" />
    </linearGradient>
  </defs>
</svg>
