<?xml version="1.0" encoding="UTF-8" standalone="no"?>
<svg
   width="90"
   height="60"
   viewBox="0 0 342 245"
   fill="none"
   oncontextmenu="return false"
   version="1.1"
   id="svg94"
   sodipodi:docname="FanOn.svg"
   xml:space="preserve"
   inkscape:version="1.2.2 (732a01da63, 2022-12-09)"
   xmlns:inkscape="http://www.inkscape.org/namespaces/inkscape"
   xmlns:sodipodi="http://sodipodi.sourceforge.net/DTD/sodipodi-0.dtd"
   xmlns="http://www.w3.org/2000/svg"
   xmlns:svg="http://www.w3.org/2000/svg"><sodipodi:namedview
     id="namedview96"
     pagecolor="#ffffff"
     bordercolor="#000000"
     borderopacity="0.25"
     inkscape:showpageshadow="2"
     inkscape:pageopacity="0.0"
     inkscape:pagecheckerboard="0"
     inkscape:deskcolor="#d1d1d1"
     showgrid="false"
     inkscape:zoom="4.721902"
     inkscape:cx="53.474215"
     inkscape:cy="53.156546"
     inkscape:window-width="1920"
     inkscape:window-height="1009"
     inkscape:window-x="1912"
     inkscape:window-y="-8"
     inkscape:window-maximized="1"
     inkscape:current-layer="svg94" /><style
     id="style2">
    @import url(css/mystyles.css);
  </style><g
     style="fill:none"
     id="g1593"
     transform="matrix(1,0,0,1.0078434,-0.88328561,5.1747941)"><g
       id="layer1-6"><path
         id="path12903-1"
         d="m 273.595,115.393 c 0,26.539 -10.445,52.01 -29.076,70.909 -18.632,18.898 -43.952,29.704 -70.488,30.082 -26.535,0.378 -52.153,-9.703 -71.314,-28.064 C 83.555,169.96 72.3894,144.796 71.6341,118.268 70.8788,91.7408 80.5943,65.982 98.6801,46.5611 116.766,27.1401 141.769,15.6175 168.283,14.4847 c 26.513,-1.1328 52.408,8.2151 72.084,26.0227 19.677,17.8076 31.554,42.6438 33.064,69.1386"
         fill="#3f4c40" /><path
         id="rect29661-0"
         d="m 216.8,204.816 c -13.358,3.426 -27.988,5.263 -42.851,5.381 -13.292,0.095 -26.49,-1.187 -38.838,-3.773 -18.035,6.831 -22.806,16.447 -29.383,25.684 H 259.861 C 251.53,221.465 248.253,209.525 216.8,204.816 Z"
         fill="#999999"
         fill-opacity="0.992157" /><path
         id="rect6772-6"
         opacity="0.801282"
         d="m 146.459,34.4822 c 17.838,-11.359 31.463,-8.1548 41.96,-3.2966 1.915,0.8866 4.569,2.6749 6.224,3.5445 1.74,2.7336 2.281,5.6642 0.206,8.0841 -15.03,14.1069 -21.393,31.0427 -23.245,49.7619 -6.019,0.6225 -10.559,2.7239 -14.608,5.3165 -7.268,-9.9681 -9.444,-20.3001 -12.271,-30.5854 -1.381,-11.0781 -2.699,-22.3651 1.734,-32.8249 z"
         fill="#9f9f9f" /><path
         id="path9203-4"
         opacity="0.801282"
         d="m 195.989,193.326 c -17.838,11.359 -31.464,8.155 -41.96,3.297 -1.915,-0.887 -4.569,-2.675 -6.224,-3.545 -1.74,-2.733 -2.281,-5.664 -0.206,-8.084 15.03,-14.107 21.393,-31.043 23.245,-49.762 6.019,-0.622 10.559,-2.724 14.607,-5.316 7.269,9.968 9.445,20.3 12.272,30.585 1.381,11.078 2.699,22.365 -1.734,32.825 z"
         fill="#9f9f9f" /><path
         id="path9205-9"
         opacity="0.801282"
         d="m 252.627,132.697 c 0.995,21.124 -8.556,31.357 -17.987,38.052 -1.721,1.222 -4.592,2.636 -6.169,3.641 -3.237,0.152 -6.048,-0.835 -7.118,-3.838 -4.775,-20.052 -16.311,-33.989 -31.636,-44.897 2.45,-5.533 2.882,-10.517 2.644,-15.319 12.262,-1.355 22.31,1.89 32.641,4.547 10.3,4.306 20.75,8.77 27.625,17.814 z"
         fill="#9f9f9f" /><path
         id="path9207-1"
         opacity="0.801282"
         d="m 92.677,94.4993 c -0.9949,-21.1244 8.556,-31.357 17.987,-38.0521 1.721,-1.222 4.591,-2.6365 6.168,-3.641 3.237,-0.1519 6.049,0.8351 7.118,3.8377 4.775,20.0526 16.311,33.9896 31.636,44.8971 -2.45,5.533 -2.882,10.517 -2.643,15.319 -12.263,1.355 -22.31,-1.89 -32.641,-4.547 -10.3,-4.306 -20.7502,-8.77 -27.625,-17.8136 z"
         fill="#9f9f9f" /><path
         id="path9209-3"
         opacity="0.801282"
         d="m 115.617,175.421 c -18.8437,-9.599 -23.0023,-22.964 -24.1471,-34.473 -0.209,-2.1 -0.0151,-5.295 -0.1073,-7.162 1.4712,-2.887 3.7214,-4.841 6.8595,-4.283 19.7849,5.785 37.6059,2.666 54.6729,-5.244 3.592,4.869 7.708,7.713 11.997,9.884 -4.896,11.324 -12.692,18.445 -20.116,26.104 -8.843,6.815 -17.897,13.682 -29.159,15.174 z"
         fill="#9f9f9f" /><path
         id="path9211-7"
         opacity="0.801282"
         d="m 227.716,52.5401 c 18.844,9.5991 23.003,22.9641 24.148,34.4731 0.209,2.1006 0.015,5.2949 0.107,7.1624 -1.471,2.887 -3.722,4.8409 -6.86,4.2827 -19.785,-5.7845 -37.606,-2.6664 -54.672,5.2437 -3.593,-4.8687 -7.709,-7.7127 -11.998,-9.8838 4.896,-11.3237 12.692,-18.4445 20.117,-26.1034 8.842,-6.815 17.896,-13.6822 29.158,-15.1747 z"
         fill="#9f9f9f" /><path
         id="path9235-6"
         opacity="0.801282"
         d="m 192.906,113.821 c 0,5.627 -2.215,11.027 -6.165,15.034 -3.95,4.007 -9.319,6.298 -14.944,6.378 -5.626,0.08 -11.058,-2.057 -15.12,-5.95 -4.063,-3.893 -6.43,-9.228 -6.59,-14.852 -0.161,-5.625 1.899,-11.086 5.734,-15.2034 3.834,-4.1175 9.135,-6.5605 14.757,-6.8007 5.621,-0.2402 11.111,1.7418 15.283,5.5172 4.172,3.7759 6.69,9.0409 7.01,14.6589"
         fill="#c4d1c5" /><path
         id="rect9339-9"
         opacity="0.801282"
         d="m 175.958,96.9334 -3.93,-0.4987 c -0.716,-0.091 -1.391,0.4134 -1.506,1.1265 -0.116,0.7132 0.371,1.365 1.088,1.456 l 3.93,0.4988 c 0.717,0.0909 1.391,-0.4135 1.507,-1.1266 0.115,-0.7132 -0.372,-1.365 -1.089,-1.456 z"
         fill="#ececec" /><path
         id="rect9339-8-2"
         opacity="0.801282"
         d="m 170.615,129.735 -3.93,-0.499 c -0.716,-0.091 -1.391,0.414 -1.506,1.127 -0.116,0.713 0.372,1.365 1.088,1.456 l 3.93,0.498 c 0.717,0.091 1.391,-0.413 1.507,-1.126 0.115,-0.713 -0.372,-1.365 -1.089,-1.456 z"
         fill="#ececec" /><path
         id="path11875-1"
         opacity="0.801282"
         d="m 184.216,113.459 c 0,3.465 -1.363,6.791 -3.796,9.258 -2.433,2.468 -5.739,3.879 -9.204,3.928 -3.464,0.05 -6.809,-1.267 -9.311,-3.664 -2.502,-2.397 -3.96,-5.683 -4.059,-9.147 -0.098,-3.463 1.17,-6.827 3.532,-9.363 2.361,-2.536 5.626,-4.04 9.088,-4.188 3.462,-0.148 6.843,1.073 9.412,3.398 2.569,2.325 4.12,5.568 4.317,9.027"
         fill="#494949" /><path
         id="path11966-6"
         opacity="0.801282"
         d="m 178.611,113.459 c 0,1.992 -0.784,3.904 -2.183,5.323 -1.399,1.419 -3.299,2.23 -5.291,2.258 -1.992,0.029 -3.916,-0.728 -5.354,-2.106 -1.439,-1.379 -2.277,-3.268 -2.334,-5.259 -0.056,-1.992 0.673,-3.926 2.031,-5.383 1.358,-1.458 3.235,-2.323 5.225,-2.409 1.99,-0.085 3.934,0.617 5.412,1.954 1.477,1.337 2.368,3.201 2.482,5.19"
         fill="#ececec" /><path
         id="rect15660-7"
         d="M 194.742,16.7922 H 328.714 V 80.8148 H 253.281 C 239.608,46.4459 220.367,24.4972 194.742,16.7922 Z"
         fill="#999999"
         fill-opacity="0.992157" /><path
         id="rect26505-1"
         d="m 339.638,11.6012 h -15 v 75 h 15 z"
         fill="#999999"
         fill-opacity="0.992157" /><path
         id="path29629-1"
         d="M 149.463,211.518 H 8.58554 V 147.495 H 87.9067 c 14.3773,34.369 34.6103,56.318 61.5563,64.023 z"
         fill="#999999"
         fill-opacity="0.992157" /><path
         id="rect26505-0-1"
         d="M 18.2887,142.91 H 3.28873 v 75 H 18.2887 Z"
         fill="#999999"
         fill-opacity="0.992157" /><path
         id="rect6140-1"
         opacity="0.801282"
         d="M 245.979,48.4008 H 100.125 v 2.9902 h 145.854 z"
         stroke="#323634"
         stroke-width="1.10381"
         stroke-linecap="square" /><path
         id="rect6140-0-2"
         opacity="0.801282"
         d="M 253.958,58.5533 H 89.672 v 3.4259 h 164.286 z"
         stroke="#323634"
         stroke-width="1.12663"
         stroke-linecap="square" /><path
         id="rect6140-5-17"
         opacity="0.801282"
         d="M 261.366,68.826 H 84.738 v 3.6211 h 176.628 z"
         stroke="#323634"
         stroke-width="1.13386"
         stroke-linecap="square" /><path
         id="rect6140-6-51"
         opacity="0.801282"
         d="M 263.831,79.0687 H 78.7377 V 82.945 H 263.831 Z"
         stroke="#323634"
         stroke-width="1.12456"
         stroke-linecap="square" /><path
         id="rect6140-8-9"
         opacity="0.801282"
         d="M 267.712,89.3827 H 75.9177 v 3.9889 H 267.712 Z"
         stroke="#323634"
         stroke-width="1.12753"
         stroke-linecap="square" /><path
         id="rect6140-4-3"
         opacity="0.801282"
         d="M 269.474,99.7014 H 73.4481 v 4.0916 H 269.474 Z"
         stroke="#323634"
         stroke-width="1.12589"
         stroke-linecap="square" /><path
         id="rect6140-2-5"
         opacity="0.801282"
         d="M 270.356,110.061 H 72.9195 v 4.113 H 270.356 Z"
         stroke="#323634"
         stroke-width="1.12681"
         stroke-linecap="square" /><path
         id="rect6140-9-5"
         opacity="0.801282"
         d="M 269.473,120.419 H 72.3887 v 4.138 H 269.473 Z"
         stroke="#323634"
         stroke-width="1.12331"
         stroke-linecap="square" /><path
         id="rect6140-0-6-1"
         opacity="0.801282"
         d="M 268.416,130.834 H 74.5061 v 4.049 H 268.416 Z"
         stroke="#323634"
         stroke-width="1.12581"
         stroke-linecap="square" /><path
         id="rect6140-5-1-5"
         opacity="0.801282"
         d="M 266.301,141.255 H 76.9752 v 3.947 H 266.301 Z"
         stroke="#323634"
         stroke-width="1.12655"
         stroke-linecap="square" /><path
         id="rect6140-6-5-2"
         opacity="0.801282"
         d="M 262.833,151.758 H 83.271 v 3.682 h 179.562 z"
         stroke="#323634"
         stroke-width="1.1063"
         stroke-linecap="square" /><path
         id="rect6140-8-7-6"
         opacity="0.801282"
         d="M 257.785,162.232 H 88.3198 v 3.474 H 257.785 Z"
         stroke="#323634"
         stroke-width="1.09223"
         stroke-linecap="square" /><path
         id="rect6140-4-1-7"
         opacity="0.801282"
         d="M 251.693,172.727 H 94.4111 v 3.225 H 251.693 Z"
         stroke="#323634"
         stroke-width="1.10934"
         stroke-linecap="square" /><path
         id="rect6140-2-3-8"
         opacity="0.801282"
         d="M 243.439,183.267 H 102.665 v 2.886 h 140.774 z"
         stroke="#323634"
         stroke-width="1.099"
         stroke-linecap="square" /><path
         id="rect6383-3"
         opacity="0.801282"
         d="m 104.444,47.2651 -0.459,139.6239 2.863,0.009 0.458,-139.6235 z"
         stroke="#323634"
         stroke-width="1.098"
         stroke-linecap="square" /><path
         id="rect6385-1"
         opacity="0.801282"
         d="m 114.656,38.1345 -0.519,157.9515 3.239,0.011 0.518,-157.9519 z"
         stroke="#323634"
         stroke-width="1.11162"
         stroke-linecap="square" /><path
         id="rect6387-9"
         opacity="0.801282"
         d="m 125.732,32.0805 -0.558,170.0745 3.486,0.012 0.559,-170.0751 z"
         stroke="#323634"
         stroke-width="1.11177"
         stroke-linecap="square" /><path
         id="rect6389-6"
         opacity="0.801282"
         d="m 135.823,27.6183 -0.588,179.0657 3.671,0.012 0.588,-179.0656 z"
         stroke="#323634"
         stroke-width="1.11177"
         stroke-linecap="square" /><path
         id="rect6391-3"
         opacity="0.801282"
         d="m 145.934,24.3665 -0.609,185.6355 3.806,0.012 0.609,-185.635 z"
         stroke="#323634"
         stroke-width="1.11177"
         stroke-linecap="square" /><path
         id="rect6393-8"
         opacity="0.801282"
         d="m 156.099,18.511 -0.61,192.692 3.813,0.013 0.611,-192.692 z"
         stroke="#323634"
         stroke-width="1.11177"
         stroke-linecap="square" /><path
         id="rect6395-0"
         opacity="0.801282"
         d="m 165.687,19.3261 -0.629,193.7649 3.928,0.014 0.629,-193.7659 z"
         stroke="#323634"
         stroke-width="1.11177"
         stroke-linecap="square" /><path
         id="rect6397-5"
         opacity="0.801282"
         d="m 176.4,19.7483 -0.624,192.6447 3.898,0.013 0.624,-192.6447 z"
         stroke="#323634"
         stroke-width="1.11177"
         stroke-linecap="square" /><path
         id="rect6399-1"
         opacity="0.801282"
         d="m 187.108,21.6578 -0.621,189.2432 3.88,0.013 0.621,-189.2434 z"
         stroke="#323634"
         stroke-width="1.11177"
         stroke-linecap="square" /><path
         id="rect6401-3"
         opacity="0.801282"
         d="m 196.782,21.0675 -0.606,187.6365 3.788,0.013 0.607,-187.6368 z"
         stroke="#323634"
         stroke-width="1.11177"
         stroke-linecap="square" /><path
         id="rect6403-9"
         opacity="0.801282"
         d="m 206.948,24.9103 -0.608,181.2717 3.795,0.012 0.608,-181.2715 z"
         stroke="#323634"
         stroke-width="1.11177"
         stroke-linecap="square" /><path
         id="rect6405-3"
         opacity="0.801282"
         d="m 218.192,28.8601 -0.582,172.4299 3.635,0.012 0.582,-172.4303 z"
         stroke="#323634"
         stroke-width="1.11459"
         stroke-linecap="square" /><path
         id="rect6407-5"
         opacity="0.801282"
         d="m 228.657,34.4576 -0.546,161.5544 3.409,0.011 0.546,-161.5545 z"
         stroke="#323634"
         stroke-width="1.13386"
         stroke-linecap="square" /><path
         id="rect6409-3"
         opacity="0.801282"
         d="m 239.192,44.0151 -0.483,144.2579 3.017,0.01 0.483,-144.2582 z"
         stroke="#323634"
         stroke-width="1.13386"
         stroke-linecap="square" /><path
         id="path13010-1"
         d="m 175.522,14.0781 c -2.494,-0.0788 -4.991,-0.0651 -7.484,0.041 -26.514,1.1329 -51.517,12.6557 -69.6033,32.077 -18.0858,19.4213 -27.8012,45.1806 -27.0454,71.7079 0.7555,26.528 11.9213,51.692 31.0827,70.052 19.162,18.361 44.78,28.441 71.316,28.063 26.535,-0.377 51.855,-11.184 70.486,-30.082 18.631,-18.898 29.076,-44.37 29.076,-70.908 l -0.164,-5.748 C 271.75,84.078 260.927,60.3264 242.85,42.7053 224.774,25.0842 200.754,14.8712 175.522,14.0781 Z m -0.392,12.4942 c 22.109,0.6946 43.156,9.6434 58.996,25.0836 15.839,15.4401 25.323,36.2522 26.582,58.3361 l 0.142,5.037 c 0,23.254 -9.152,45.573 -25.477,62.133 -16.325,16.559 -38.512,26.028 -61.763,26.359 -23.252,0.331 -45.699,-8.502 -62.49,-24.591 C 94.3303,162.842 84.5468,140.791 83.8854,117.547 83.2234,94.3025 91.7366,71.7315 107.584,54.714 123.432,37.6965 145.34,27.6 168.573,26.6074 c 2.184,-0.0923 4.371,-0.1036 6.556,-0.034 z"
         fill="#999999"
         fill-opacity="0.992157" /></g></g><g
     id="Q_ON 1"><g
       id="layer2"><path
         id="path12903"
         d="M273 121.999C273 148.537 262.556 174.009 243.924 192.908C225.293 211.806 199.973 222.612 173.437 222.99C146.902 223.368 121.284 213.286 102.122 194.926C82.9607 176.566 71.7952 151.401 71.0399 124.874C70.2845 98.3468 80.0001 72.5879 98.0859 53.167C116.172 33.746 141.174 22.2235 167.688 21.0907C194.202 19.9578 220.097 29.3058 239.773 47.1133C259.45 64.9209 271.327 89.7572 272.837 116.252"
         fill="#3F4C40" /></g><g
       id="layer4"><path
         id="rect29661"
         d="M216.206 211.422C202.848 214.848 188.218 216.685 173.355 216.803C160.063 216.898 146.865 215.616 134.517 213.03C116.482 219.861 111.711 229.477 105.134 238.714H259.266C250.936 228.071 247.659 216.131 216.206 211.422V211.422Z"
         fill="url(#paint0_linear_0:1)"
         stroke="#B9E8B4"
         stroke-width="0.755906"
         stroke-linecap="square" /></g><g
       id="layer1"><path
         id="rect6772"
         opacity="0.801282"
         d="M231.207 179.539C220.724 197.905 207.176 201.424 195.626 202.02C193.517 202.129 190.336 201.785 188.466 201.789C185.652 200.182 183.808 197.841 184.514 194.733C191.233 175.245 188.965 157.296 181.875 139.873C186.909 136.516 189.945 132.54 192.318 128.359C203.396 133.788 210.138 141.913 217.436 149.693C223.823 158.85 230.252 168.22 231.208 179.54L231.207 179.539Z"
         fill="#39AB40" /><path
         id="path9203"
         opacity="0.801282"
         d="M113.325 62.1151C123.809 43.7489 137.356 40.2301 148.907 39.6336C151.015 39.5248 154.196 39.8693 156.066 39.8666C158.88 41.4735 160.725 43.814 160.018 46.922C153.299 66.4097 155.567 84.3589 162.657 101.782C157.623 105.139 154.587 109.115 152.214 113.296C141.136 107.868 134.394 99.742 127.096 91.9617C120.709 82.8055 114.28 73.4352 113.325 62.1151H113.325Z"
         fill="#39AB40" /><path
         id="path9205"
         opacity="0.801282"
         d="M91.4918 142.159C80.7617 123.936 84.4391 110.43 89.6602 100.11C90.6132 98.2265 92.4929 95.6367 93.4197 94.0128C96.2122 92.3692 99.16 91.9311 101.506 94.0887C115.08 109.601 131.784 116.552 150.427 119.055C150.839 125.092 152.781 129.702 155.231 133.839C145.016 140.756 134.614 142.57 124.236 145.037C113.117 146.031 101.791 146.954 91.4919 142.159L91.4918 142.159Z"
         fill="#39AB40" /><path
         id="path9207"
         opacity="0.801282"
         d="M250.8 101.368C261.53 119.591 257.852 133.097 252.631 143.417C251.678 145.301 249.799 147.89 248.872 149.514C246.079 151.158 243.132 151.596 240.785 149.439C227.211 133.926 210.508 126.976 191.864 124.472C191.452 118.435 189.51 113.825 187.06 109.688C197.276 102.772 207.677 100.958 218.055 98.4905C229.175 97.4969 240.501 96.573 250.8 101.368L250.8 101.368Z"
         fill="#39AB40" /><path
         id="path9209"
         opacity="0.801282"
         d="M192.773 40.4782C213.919 40.1833 223.83 50.0673 230.209 59.7149C231.373 61.4756 232.691 64.3918 233.644 66.0009C233.688 69.2409 232.609 72.0186 229.573 72.988C209.373 77.0963 195.062 88.1644 183.652 103.12C178.204 100.488 173.237 99.8912 168.43 99.9713C167.481 87.6709 171.057 77.7365 174.054 67.4992C178.699 57.3474 183.506 47.0506 192.773 40.4791L192.773 40.4782Z"
         fill="#39AB40" /><path
         id="path9211"
         opacity="0.801282"
         d="M150.904 201.453C129.758 201.748 119.847 191.864 113.468 182.217C112.304 180.456 110.986 177.54 110.034 175.931C109.989 172.691 111.068 169.913 114.105 168.944C134.305 164.835 148.616 153.767 160.025 138.812C165.473 141.444 170.44 142.04 175.248 141.96C176.196 154.261 172.62 164.195 169.623 174.432C164.978 184.584 160.171 194.881 150.904 201.452L150.904 201.453Z"
         fill="#39AB40" /><path
         id="path9235"
         opacity="0.801282"
         d="M152.746 130.982C150.122 126.004 149.563 120.195 151.189 114.808C152.815 109.422 156.496 104.892 161.436 102.198C166.375 99.5035 172.177 98.8617 177.586 100.411C182.995 101.96 187.577 105.576 190.341 110.477C193.105 115.378 193.829 121.169 192.357 126.6C190.885 132.03 187.335 136.663 182.474 139.497C177.613 142.33 171.832 143.137 166.381 141.742C160.93 140.348 156.247 136.864 153.345 132.044"
         fill="#B0D6B2" /><path
         id="rect9339"
         opacity="0.801282"
         d="M175.991 138.047L179.7 136.656C180.377 136.402 180.738 135.642 180.508 134.957C180.278 134.272 179.542 133.923 178.866 134.177L175.157 135.568C174.481 135.821 174.119 136.582 174.349 137.267C174.58 137.952 175.315 138.301 175.991 138.047Z"
         fill="#ECECEC" /><path
         id="rect9339-8"
         opacity="0.801282"
         d="M165.423 106.539L169.132 105.148C169.808 104.894 170.17 104.133 169.94 103.448C169.709 102.764 168.974 102.414 168.298 102.668L164.589 104.059C163.912 104.313 163.551 105.074 163.781 105.758C164.011 106.443 164.747 106.792 165.423 106.539Z"
         fill="#ECECEC" /><path
         id="path11875"
         opacity="0.801282"
         d="M159.869 127.05C158.253 123.985 157.909 120.407 158.91 117.089C159.912 113.772 162.178 110.982 165.22 109.323C168.263 107.664 171.835 107.269 175.167 108.223C178.498 109.177 181.319 111.404 183.022 114.422C184.724 117.44 185.17 121.007 184.264 124.351C183.357 127.696 181.17 130.549 178.177 132.294C175.183 134.039 171.623 134.536 168.266 133.677C164.909 132.818 162.025 130.672 160.238 127.704"
         fill="#494949" /><path
         id="path11966"
         opacity="0.801282"
         d="M164.828 124.436C163.899 122.674 163.701 120.617 164.277 118.71C164.853 116.802 166.156 115.198 167.905 114.244C169.654 113.29 171.708 113.063 173.624 113.612C175.539 114.16 177.161 115.441 178.14 117.176C179.119 118.911 179.375 120.962 178.854 122.885C178.333 124.808 177.075 126.448 175.354 127.452C173.633 128.455 171.586 128.74 169.656 128.247C167.726 127.753 166.068 126.519 165.04 124.812"
         fill="#ECECEC" /></g><g
       id="layer7"><path
         id="rect15660"
         d="M194.148 23.3981H328.12V87.4207H252.687C239.014 53.0518 219.773 31.1032 194.148 23.3981Z"
         fill="url(#paint1_linear_0:1)" /><path
         id="rect26505"
         d="M339.044 18.2071H324.044V93.2071H339.044V18.2071Z"
         fill="url(#paint2_linear_0:1)"
         stroke="#23EE8A"
         stroke-width="1.13386"
         stroke-linecap="square" /><path
         id="path29629"
         d="M148.869 218.124H7.99133V154.101H87.3125C101.69 188.47 121.923 210.419 148.869 218.124V218.124Z"
         fill="url(#paint3_linear_0:1)" /><path
         id="rect26505-0"
         d="M17.6945 149.516H2.69452V224.516H17.6945V149.516Z"
         fill="url(#paint4_linear_0:1)"
         stroke="#23EE8A"
         stroke-width="1.13386"
         stroke-linecap="square" /></g><g
       id="layer5"><path
         id="rect6140"
         opacity="0.801282"
         d="M245.385 55.0068H99.5308V57.997H245.385V55.0068Z"
         stroke="#323634"
         stroke-width="1.10381"
         stroke-linecap="square" /><path
         id="rect6140-0"
         opacity="0.801282"
         d="M253.363 65.1592H89.0778V68.5851H253.363V65.1592Z"
         stroke="#323634"
         stroke-width="1.12663"
         stroke-linecap="square" /><path
         id="rect6140-5"
         opacity="0.801282"
         d="M260.772 75.4319H84.1438V79.0531H260.772V75.4319Z"
         stroke="#323634"
         stroke-width="1.13386"
         stroke-linecap="square" /><path
         id="rect6140-6"
         opacity="0.801282"
         d="M263.237 85.6747H78.1434V89.5509H263.237V85.6747Z"
         stroke="#323634"
         stroke-width="1.12456"
         stroke-linecap="square" /><path
         id="rect6140-8"
         opacity="0.801282"
         d="M267.118 95.9886H75.3234V99.9776H267.118V95.9886Z"
         stroke="#323634"
         stroke-width="1.12753"
         stroke-linecap="square" /><path
         id="rect6140-4"
         opacity="0.801282"
         d="M268.88 106.307H72.8539V110.399H268.88V106.307Z"
         stroke="#323634"
         stroke-width="1.12589"
         stroke-linecap="square" /><path
         id="rect6140-2"
         opacity="0.801282"
         d="M269.762 116.667H72.3253V120.78H269.762V116.667Z"
         stroke="#323634"
         stroke-width="1.12681"
         stroke-linecap="square" /><path
         id="rect6140-9"
         opacity="0.801282"
         d="M268.879 127.025H71.7945V131.163H268.879V127.025Z"
         stroke="#323634"
         stroke-width="1.12331"
         stroke-linecap="square" /><path
         id="rect6140-0-6"
         opacity="0.801282"
         d="M267.822 137.44H73.9119V141.489H267.822V137.44Z"
         stroke="#323634"
         stroke-width="1.12581"
         stroke-linecap="square" /><path
         id="rect6140-5-1"
         opacity="0.801282"
         d="M265.706 147.861H76.381V151.808H265.706V147.861Z"
         stroke="#323634"
         stroke-width="1.12655"
         stroke-linecap="square" /><path
         id="rect6140-6-5"
         opacity="0.801282"
         d="M262.239 158.364H82.6768V162.046H262.239V158.364Z"
         stroke="#323634"
         stroke-width="1.1063"
         stroke-linecap="square" /><path
         id="rect6140-8-7"
         opacity="0.801282"
         d="M257.19 168.838H87.7256V172.312H257.19V168.838Z"
         stroke="#323634"
         stroke-width="1.09223"
         stroke-linecap="square" /><path
         id="rect6140-4-1"
         opacity="0.801282"
         d="M251.099 179.333H93.817V182.558H251.099V179.333Z"
         stroke="#323634"
         stroke-width="1.10934"
         stroke-linecap="square" /><path
         id="rect6140-2-3"
         opacity="0.801282"
         d="M242.845 189.873H102.071V192.759H242.845V189.873Z"
         stroke="#323634"
         stroke-width="1.099"
         stroke-linecap="square" /><path
         id="rect6383"
         opacity="0.801282"
         d="M103.849 53.871L103.391 193.495L106.253 193.504L106.712 53.8804L103.849 53.871Z"
         stroke="#323634"
         stroke-width="1.098"
         stroke-linecap="square" /><path
         id="rect6385"
         opacity="0.801282"
         d="M114.062 44.7403L113.543 202.692L116.781 202.703L117.3 44.751L114.062 44.7403Z"
         stroke="#323634"
         stroke-width="1.11162"
         stroke-linecap="square" /><path
         id="rect6387"
         opacity="0.801282"
         d="M125.138 38.6864L124.579 208.761L128.066 208.773L128.624 38.6978L125.138 38.6864Z"
         stroke="#323634"
         stroke-width="1.11177"
         stroke-linecap="square" /><path
         id="rect6389"
         opacity="0.801282"
         d="M135.228 34.2242L134.641 213.289L138.312 213.301L138.9 34.2362L135.228 34.2242Z"
         stroke="#323634"
         stroke-width="1.11177"
         stroke-linecap="square" /><path
         id="rect6391"
         opacity="0.801282"
         d="M145.34 30.9724L144.731 216.608L148.536 216.62L149.146 30.9849L145.34 30.9724Z"
         stroke="#323634"
         stroke-width="1.11177"
         stroke-linecap="square" /><path
         id="rect6393"
         opacity="0.801282"
         d="M155.505 25.117L154.894 217.809L158.708 217.822L159.319 25.13L155.505 25.117Z"
         stroke="#323634"
         stroke-width="1.11177"
         stroke-linecap="square" /><path
         id="rect6395"
         opacity="0.801282"
         d="M165.093 25.932L164.464 219.697L168.392 219.711L169.021 25.9451L165.093 25.932Z"
         stroke="#323634"
         stroke-width="1.11177"
         stroke-linecap="square" /><path
         id="rect6397"
         opacity="0.801282"
         d="M175.806 26.3543L175.181 218.999L179.08 219.012L179.704 26.3672L175.806 26.3543Z"
         stroke="#323634"
         stroke-width="1.11177"
         stroke-linecap="square" /><path
         id="rect6399"
         opacity="0.801282"
         d="M186.514 28.2637L185.893 217.507L189.772 217.519L190.394 28.2764L186.514 28.2637Z"
         stroke="#323634"
         stroke-width="1.11177"
         stroke-linecap="square" /><path
         id="rect6401"
         opacity="0.801282"
         d="M196.188 27.6734L195.581 215.31L199.37 215.323L199.977 27.6861L196.188 27.6734Z"
         stroke="#323634"
         stroke-width="1.11177"
         stroke-linecap="square" /><path
         id="rect6403"
         opacity="0.801282"
         d="M206.354 31.5163L205.746 212.788L209.541 212.8L210.149 31.5285L206.354 31.5163Z"
         stroke="#323634"
         stroke-width="1.11177"
         stroke-linecap="square" /><path
         id="rect6405"
         opacity="0.801282"
         d="M217.598 35.4661L217.015 207.896L220.651 207.908L221.233 35.4777L217.598 35.4661Z"
         stroke="#323634"
         stroke-width="1.11459"
         stroke-linecap="square" /><path
         id="rect6407"
         opacity="0.801282"
         d="M228.063 41.0635L227.517 202.618L230.926 202.629L231.472 41.0744L228.063 41.0635Z"
         stroke="#323634"
         stroke-width="1.13386"
         stroke-linecap="square" /><path
         id="rect6409"
         opacity="0.801282"
         d="M238.598 50.621L238.115 194.879L241.131 194.889L241.614 50.6308L238.598 50.621Z"
         stroke="#323634"
         stroke-width="1.13386"
         stroke-linecap="square" /></g><g
       id="layer3"><path
         id="path13010"
         d="M174.928 20.6841C172.433 20.6053 169.937 20.619 167.444 20.7251C140.929 21.8579 115.926 33.3807 97.8405 52.8021C79.7547 72.2234 70.0393 97.9826 70.7951 124.51C71.5506 151.038 82.7164 176.202 101.878 194.562C121.04 212.923 146.658 223.003 173.194 222.625C199.729 222.248 225.049 211.441 243.68 192.543C262.311 173.645 272.756 148.173 272.756 121.635L272.592 115.887C271.155 90.684 260.333 66.9324 242.256 49.3113C224.18 31.6902 200.16 21.4771 174.928 20.6841V20.6841ZM174.535 33.1782C196.644 33.8729 217.692 42.8217 233.531 58.2619C249.371 73.702 258.854 94.514 260.113 116.598L260.256 121.635C260.256 144.889 251.104 167.208 234.779 183.768C218.454 200.327 196.267 209.796 173.016 210.127C149.764 210.458 127.316 201.625 110.526 185.536C93.7361 169.448 83.9526 147.397 83.2912 124.153C82.6292 100.908 91.1424 78.3374 106.99 61.3199C122.837 44.3025 144.746 34.2059 167.979 33.2134C170.163 33.1207 172.35 33.109 174.535 33.1782H174.535Z"
         fill="#46E453" /></g></g><defs
     id="defs92"><linearGradient
       id="paint0_linear_0:1"
       x1="115.438"
       y1="229.414"
       x2="252.851"
       y2="228.74"
       gradientUnits="userSpaceOnUse"><stop
         stop-color="#00B30A"
         id="stop57" /><stop
         offset="0.476808"
         stop-color="#B9D7BC"
         stop-opacity="0.992157"
         id="stop59" /><stop
         offset="1"
         stop-color="#79E07F"
         stop-opacity="0.988235"
         id="stop61" /></linearGradient><linearGradient
       id="paint1_linear_0:1"
       x1="276.345"
       y1="87"
       x2="276.345"
       y2="25"
       gradientUnits="userSpaceOnUse"><stop
         stop-color="#17A81F"
         id="stop64" /><stop
         offset="0.476808"
         stop-color="#E9E9E9"
         stop-opacity="0.992157"
         id="stop66" /><stop
         offset="1"
         stop-color="#1FF42B"
         stop-opacity="0.988235"
         id="stop68" /></linearGradient><linearGradient
       id="paint2_linear_0:1"
       x1="331.044"
       y1="20.7071"
       x2="331.544"
       y2="91.2071"
       gradientUnits="userSpaceOnUse"><stop
         stop-color="#4DFB57"
         id="stop71" /><stop
         offset="0.3079"
         stop-color="white"
         id="stop73" /><stop
         offset="1"
         stop-color="#13C21C"
         id="stop75" /></linearGradient><linearGradient
       id="paint3_linear_0:1"
       x1="62.4348"
       y1="154.522"
       x2="62.4348"
       y2="216.522"
       gradientUnits="userSpaceOnUse"><stop
         stop-color="#49E557"
         id="stop78" /><stop
         offset="0.476808"
         stop-color="#D8E3D9"
         stop-opacity="0.992157"
         id="stop80" /><stop
         offset="1"
         stop-color="#18AC20"
         stop-opacity="0.988235"
         id="stop82" /></linearGradient><linearGradient
       id="paint4_linear_0:1"
       x1="9.69448"
       y1="152.016"
       x2="10.1945"
       y2="222.516"
       gradientUnits="userSpaceOnUse"><stop
         stop-color="#4DFB57"
         id="stop85" /><stop
         offset="0.3079"
         stop-color="white"
         id="stop87" /><stop
         offset="1"
         stop-color="#13C21C"
         id="stop89" /></linearGradient></defs></svg>
