<svg width="100" height="75" viewBox="0 0 100 75" fill="none" xmlns="http://www.w3.org/2000/svg"  oncontextmenu="return false">
<g id="FanOn_final 1">
<g id="Q_ON 1">
<g id="g22003">
<g id="layer2">
<path id="path12903" d="M76.7461 33.462C76.7461 41.866 73.4387 49.9325 67.5384 55.9174C61.6383 61.902 53.6201 65.324 45.2167 65.4437C36.8136 65.5634 28.701 62.3706 22.6328 56.5564C16.5648 50.7422 13.0289 42.773 12.7897 34.3725C12.5505 25.9719 15.6272 17.8146 21.3546 11.6644C27.0821 5.5142 34.9997 1.86528 43.3961 1.50654C51.7925 1.14778 59.9929 4.10809 66.2239 9.74734C72.4551 15.3866 76.2163 23.2517 76.6945 31.6421" fill="#3F4C40"/>
</g>
<g id="layer4">
<path id="rect29661" d="M62.0375 58.9958C55.7729 60.0808 51.7857 59.1291 44.8153 59.1665C38.5817 59.1966 34.9895 59.8398 29.1986 59.0208C22.1954 63.6201 15.2469 68.1789 12 70.8667L81 70.7053C79.4433 69.6522 78.1459 68.6251 75.7447 67.0366C73.108 65.2924 69.1405 62.8713 62.0375 58.9958Z" fill="url(#paint0_linear_125_2)" stroke="white" stroke-width="0.316358" stroke-linecap="square"/>
</g>
<g id="layer1">
<path id="rect6772" opacity="0.801282" d="M63.5112 51.6837C60.1914 57.4998 55.9011 58.6142 52.2435 58.803C51.5756 58.8375 50.5682 58.7285 49.976 58.7298C49.0849 58.2209 48.501 57.4796 48.7245 56.4953C50.8523 50.3239 50.1341 44.6398 47.8888 39.1223C49.483 38.0593 50.4444 36.8001 51.1959 35.4761C54.704 37.1954 56.8391 39.7684 59.1502 42.2321C61.1728 45.1319 63.2088 48.0992 63.5115 51.684L63.5112 51.6837Z" fill="#39AB40"/>
<path id="path9203" opacity="0.801282" d="M26.1805 14.4981C29.5006 8.68191 33.7906 7.56758 37.4486 7.37868C38.1161 7.34422 39.1235 7.45332 39.7157 7.45246C40.6068 7.96134 41.1911 8.70252 40.9672 9.68676C38.8394 15.8581 39.5576 21.5422 41.8029 27.0597C40.2087 28.1228 39.2473 29.3819 38.4958 30.706C34.9876 28.987 32.8526 26.4137 30.5415 23.9499C28.5189 21.0503 26.4829 18.0829 26.1805 14.4981Z" fill="#39AB40"/>
<path id="path9205" opacity="0.801282" d="M19.2664 39.8463C15.8684 34.0754 17.033 29.7984 18.6864 26.5303C18.9882 25.9338 19.5834 25.1137 19.8769 24.5994C20.7613 24.0789 21.6948 23.9402 22.4377 24.6234C26.7363 29.5359 32.0261 31.7371 37.9299 32.5297C38.0604 34.4415 38.6754 35.9014 39.4512 37.2115C36.2164 39.402 32.9223 39.9764 29.6358 40.7577C26.1146 41.0724 22.5279 41.3647 19.2664 39.8463H19.2664Z" fill="#39AB40"/>
<path id="path9207" opacity="0.801282" d="M69.7159 26.9286C73.1138 32.6995 71.9491 36.9765 70.2957 40.2446C69.9939 40.8413 69.3989 41.6611 69.1053 42.1754C68.2208 42.696 67.2876 42.8347 66.5443 42.1517C62.2457 37.239 56.9563 35.0381 51.0521 34.2452C50.9216 32.3334 50.3066 30.8735 49.5308 29.5634C52.766 27.3732 56.0597 26.7988 59.3462 26.0174C62.8677 25.7027 66.4544 25.4101 69.7159 26.9286V26.9286Z" fill="#39AB40"/>
<path id="path9209" opacity="0.801282" d="M51.34 7.64614C58.0364 7.55275 61.175 10.6828 63.1951 13.738C63.5638 14.2956 63.9811 15.2191 64.2829 15.7286C64.2969 16.7547 63.9552 17.6343 62.9937 17.9413C56.5968 19.2423 52.0648 22.7473 48.4515 27.4834C46.7263 26.65 45.1533 26.461 43.6311 26.4863C43.3305 22.5911 44.463 19.445 45.4121 16.2031C46.883 12.9883 48.4053 9.72748 51.34 7.64643V7.64614Z" fill="#39AB40"/>
<path id="path9211" opacity="0.801282" d="M38.081 58.6234C31.3845 58.7168 28.2459 55.5868 26.2258 52.5318C25.8572 51.9741 25.4398 51.0507 25.1383 50.5411C25.1241 49.5151 25.4658 48.6354 26.4275 48.3285C32.8244 47.0273 37.3564 43.5223 40.9694 38.7863C42.6947 39.6198 44.2676 39.8086 45.7902 39.7833C46.0904 43.6787 44.958 46.8246 44.0089 50.0664C42.5379 53.2814 41.0156 56.5422 38.081 58.6231V58.6234Z" fill="#39AB40"/>
<path id="path9235" opacity="0.801282" d="M38.6643 36.3067C37.8333 34.7303 37.6563 32.8907 38.1712 31.1848C38.6861 29.4791 39.8518 28.0446 41.4162 27.1915C42.9803 26.3382 44.8177 26.1349 46.5306 26.6256C48.2435 27.1161 49.6945 28.2612 50.5698 29.8132C51.4451 31.3653 51.6744 33.1992 51.2082 34.9191C50.7421 36.6386 49.6179 38.1058 48.0785 39.0033C46.5391 39.9004 44.7084 40.156 42.9822 39.7142C41.256 39.2727 39.773 38.1694 38.854 36.6431" fill="#B0D6B2"/>
<path id="rect9339" opacity="0.801282" d="M46.0255 38.5441L47.2 38.1036C47.4144 38.0231 47.5287 37.7825 47.4559 37.5655C47.3831 37.3486 47.15 37.2381 46.9359 37.3185L45.7614 37.759C45.5473 37.8391 45.4326 38.0801 45.5055 38.2971C45.5786 38.514 45.8114 38.6245 46.0255 38.5441Z" fill="#ECECEC"/>
<path id="rect9339-8" opacity="0.801282" d="M42.6788 28.5662L43.8534 28.1257C44.0675 28.0452 44.1821 27.8042 44.1093 27.5873C44.0361 27.3707 43.8033 27.2599 43.5893 27.3403L42.4147 27.7808C42.2003 27.8612 42.086 28.1022 42.1588 28.3189C42.2317 28.5358 42.4647 28.6463 42.6788 28.5662Z" fill="#ECECEC"/>
<path id="path11875" opacity="0.801282" d="M40.92 35.0616C40.4082 34.091 40.2993 32.9579 40.6163 31.9071C40.9336 30.8567 41.6512 29.9732 42.6145 29.4478C43.5782 28.9224 44.7094 28.7974 45.7645 29.0995C46.8194 29.4016 47.7127 30.1068 48.252 31.0626C48.791 32.0183 48.9323 33.1479 48.6454 34.2069C48.3581 35.2661 47.6656 36.1696 46.7177 36.7222C45.7696 37.2748 44.6422 37.4322 43.5791 37.1602C42.516 36.8882 41.6027 36.2086 41.0368 35.2687" fill="#494949"/>
<path id="path11966" opacity="0.801282" d="M42.4904 34.2337C42.1962 33.6758 42.1335 33.0244 42.3159 32.4204C42.4983 31.8162 42.9109 31.3083 43.4648 31.0062C44.0187 30.7041 44.6691 30.6322 45.2759 30.806C45.8823 30.9796 46.396 31.3852 46.706 31.9347C47.016 32.4841 47.0971 33.1336 46.9321 33.7426C46.7671 34.3516 46.3688 34.8709 45.8237 35.1889C45.2787 35.5065 44.6305 35.5967 44.0193 35.4406C43.4081 35.2842 42.8831 34.8934 42.5575 34.3528" fill="#ECECEC"/>
</g>
<path id="rect15660" d="M51.7754 2.23727H94.2014V22.5118H70.3134C65.9835 11.628 59.8903 4.67731 51.7754 2.23727Z" fill="url(#paint1_linear_125_2)" stroke="white" stroke-width="0.316678"/>
<path id="rect26505" d="M97.6608 0.593384H92.9107V24.3443H97.6608V0.593384Z" fill="url(#paint2_linear_125_2)" stroke="white" stroke-width="0.359069" stroke-linecap="square"/>
<g id="layer5">
<path id="rect6140" opacity="0.801282" d="M68.001 12.247H21.8122V13.194H68.001V12.247Z" stroke="#323634" stroke-width="0.349553" stroke-linecap="square"/>
<path id="rect6140-0" opacity="0.801282" d="M70.5275 15.4621H18.5019V16.547H70.5275V15.4621Z" stroke="#323634" stroke-width="0.356779" stroke-linecap="square"/>
<path id="rect6140-5" opacity="0.801282" d="M72.8738 18.7152H16.9395V19.862H72.8738V18.7152Z" stroke="#323634" stroke-width="0.359069" stroke-linecap="square"/>
<path id="rect6140-6" opacity="0.801282" d="M73.6544 21.9589H15.0393V23.1864H73.6544V21.9589Z" stroke="#323634" stroke-width="0.356124" stroke-linecap="square"/>
<path id="rect6140-8" opacity="0.801282" d="M74.8834 25.2251H14.1462V26.4883H74.8834V25.2251Z" stroke="#323634" stroke-width="0.357064" stroke-linecap="square"/>
<path id="rect6140-4" opacity="0.801282" d="M75.4414 28.4927H13.3642V29.7886H75.4414V28.4927Z" stroke="#323634" stroke-width="0.356545" stroke-linecap="square"/>
<path id="rect6140-2" opacity="0.801282" d="M75.7207 31.7735H13.1968V33.076H75.7207V31.7735Z" stroke="#323634" stroke-width="0.356836" stroke-linecap="square"/>
<path id="rect6140-9" opacity="0.801282" d="M75.4411 35.0536H13.0287V36.3641H75.4411V35.0536Z" stroke="#323634" stroke-width="0.355728" stroke-linecap="square"/>
<path id="rect6140-0-6" opacity="0.801282" d="M75.1064 38.3519H13.6992V39.6341H75.1064V38.3519Z" stroke="#323634" stroke-width="0.35652" stroke-linecap="square"/>
<path id="rect6140-5-1" opacity="0.801282" d="M74.4363 41.6519H14.4811V42.9019H74.4363V41.6519Z" stroke="#323634" stroke-width="0.356754" stroke-linecap="square"/>
<path id="rect6140-6-5" opacity="0.801282" d="M73.3384 44.978H16.4749V46.144H73.3384V44.978Z" stroke="#323634" stroke-width="0.350341" stroke-linecap="square"/>
<path id="rect6140-8-7" opacity="0.801282" d="M71.7394 48.2949H18.0737V49.3951H71.7394V48.2949Z" stroke="#323634" stroke-width="0.345886" stroke-linecap="square"/>
<path id="rect6140-4-1" opacity="0.801282" d="M69.8106 51.6185H20.0027V52.6398H69.8106V51.6185Z" stroke="#323634" stroke-width="0.351304" stroke-linecap="square"/>
<path id="rect6140-2-3" opacity="0.801282" d="M67.1967 54.9562H22.6166V55.8702H67.1967V54.9562Z" stroke="#323634" stroke-width="0.34803" stroke-linecap="square"/>
<path id="rect6383" opacity="0.801282" d="M23.1797 11.8874L23.0346 56.1033L23.941 56.1061L24.0863 11.8903L23.1797 11.8874Z" stroke="#323634" stroke-width="0.347713" stroke-linecap="square"/>
<path id="rect6385" opacity="0.801282" d="M26.4139 8.99585L26.2495 59.0157L27.2749 59.0192L27.4393 8.99924L26.4139 8.99585Z" stroke="#323634" stroke-width="0.352026" stroke-linecap="square"/>
<path id="rect6387" opacity="0.801282" d="M29.9214 7.07874L29.7444 60.9377L30.8487 60.9415L31.0254 7.08234L29.9214 7.07874Z" stroke="#323634" stroke-width="0.352074" stroke-linecap="square"/>
<path id="rect6389" opacity="0.801282" d="M33.1167 5.66565L32.9308 62.3716L34.0933 62.3754L34.2796 5.66945L33.1167 5.66565Z" stroke="#323634" stroke-width="0.352074" stroke-linecap="square"/>
<path id="rect6391" opacity="0.801282" d="M36.319 4.63586L36.1261 63.4226L37.3311 63.4264L37.5242 4.63982L36.319 4.63586Z" stroke="#323634" stroke-width="0.352074" stroke-linecap="square"/>
<path id="rect6393" opacity="0.801282" d="M39.538 2.78159L39.3445 63.803L40.5523 63.8071L40.7458 2.7857L39.538 2.78159Z" stroke="#323634" stroke-width="0.352074" stroke-linecap="square"/>
<path id="rect6395" opacity="0.801282" d="M42.5743 3.03967L42.3751 64.4009L43.619 64.4053L43.8182 3.04382L42.5743 3.03967Z" stroke="#323634" stroke-width="0.352074" stroke-linecap="square"/>
<path id="rect6397" opacity="0.801282" d="M45.9669 3.1734L45.769 64.1798L47.0037 64.1839L47.2013 3.17749L45.9669 3.1734Z" stroke="#323634" stroke-width="0.352074" stroke-linecap="square"/>
<path id="rect6399" opacity="0.801282" d="M49.3579 3.77808L49.1612 63.7073L50.3896 63.7111L50.5866 3.7821L49.3579 3.77808Z" stroke="#323634" stroke-width="0.352074" stroke-linecap="square"/>
<path id="rect6401" opacity="0.801282" d="M52.4214 3.59116L52.2292 63.0116L53.4291 63.0157L53.6213 3.59518L52.4214 3.59116Z" stroke="#323634" stroke-width="0.352074" stroke-linecap="square"/>
<path id="rect6403" opacity="0.801282" d="M55.6408 4.80811L55.4482 62.2129L56.65 62.2167L56.8426 4.81197L55.6408 4.80811Z" stroke="#323634" stroke-width="0.352074" stroke-linecap="square"/>
<path id="rect6405" opacity="0.801282" d="M59.2015 6.05893L59.0169 60.6638L60.1683 60.6676L60.3526 6.0626L59.2015 6.05893Z" stroke="#323634" stroke-width="0.352967" stroke-linecap="square"/>
<path id="rect6407" opacity="0.801282" d="M62.5156 7.83151L62.3426 58.9923L63.4222 58.9958L63.5951 7.83497L62.5156 7.83151Z" stroke="#323634" stroke-width="0.359069" stroke-linecap="square"/>
<path id="rect6409" opacity="0.801282" d="M65.8518 10.8582L65.6988 56.5415L66.6539 56.5447L66.8069 10.8613L65.8518 10.8582Z" stroke="#323634" stroke-width="0.359069" stroke-linecap="square"/>
</g>
<g id="layer3">
<path id="path13010" d="M45.6888 1.37779C44.8987 1.35284 44.1083 1.35718 43.3188 1.39078C34.9221 1.74951 27.0042 5.39853 21.2769 11.5489C15.5495 17.6992 12.4729 25.8566 12.7122 34.2572C12.9515 42.6581 16.4874 50.6269 22.5555 56.4412C28.6237 62.2557 36.7363 65.4478 45.1397 65.3281C53.5428 65.2087 61.5611 61.7864 67.4611 55.8018C73.3611 49.8172 76.6689 41.7508 76.6689 33.3468L76.6169 31.5265C76.1619 23.5452 72.7348 16.0236 67.0102 10.4434C61.2859 4.86319 53.6793 1.62892 45.6888 1.37779ZM45.5644 5.3344C52.5658 5.5544 59.2313 8.38829 64.2471 13.2779C69.2633 18.1674 72.2664 24.7581 72.6651 31.7517L72.7104 33.3468C72.7104 40.7108 69.8121 47.7787 64.6424 53.0229C59.4726 58.2668 52.4464 61.2654 45.0834 61.3703C37.72 61.4751 30.6112 58.6779 25.2941 53.5828C19.9771 48.4881 16.8789 41.505 16.6695 34.1442C16.4598 26.783 19.1558 19.6353 24.1743 14.2463C29.1928 8.85723 36.1309 5.65986 43.4882 5.34555C44.1799 5.3162 44.8725 5.31249 45.5644 5.3344V5.3344Z" fill="#46E453"/>
</g>
<path id="path1044" d="M44.6846 60.618C59.9323 60.618 72.2929 48.439 72.2929 33.4155C72.2929 18.392 59.9323 6.21304 44.6846 6.21304C29.437 6.21304 17.0764 18.392 17.0764 33.4155C17.0764 48.439 29.437 60.618 44.6846 60.618Z" stroke="url(#paint3_linear_125_2)" stroke-width="9.41897"/>
<path id="path18314" d="M44.639 65.4717C62.5701 65.4717 77.1062 51.1655 77.1062 33.518C77.1062 15.8704 62.5701 1.56427 44.639 1.56427C26.7078 1.56427 12.1717 15.8704 12.1717 33.518C12.1717 51.1655 26.7078 65.4717 44.639 65.4717Z" stroke="white" stroke-width="0.373158"/>
<path id="path18314-2" d="M44.8548 55.8341C57.5453 55.8341 67.8329 45.8104 67.8329 33.4456C67.8329 21.0808 57.5453 11.0572 44.8548 11.0572C32.1644 11.0572 21.8767 21.0808 21.8767 33.4456C21.8767 45.8104 32.1644 55.8341 44.8548 55.8341Z" stroke="#E7F400" stroke-width="0.52112"/>
</g>
</g>
</g>
<defs>
<linearGradient id="paint0_linear_125_2" x1="11.6256" y1="64.9261" x2="81.4259" y2="64.9261" gradientUnits="userSpaceOnUse">
<stop stop-color="#A7A7A7"/>
<stop offset="0.476808" stop-color="#E9E9E9" stop-opacity="0.992157"/>
<stop offset="1" stop-color="#A7A7A7"/>
</linearGradient>
<linearGradient id="paint1_linear_125_2" x1="77.8054" y1="22.3786" x2="77.8054" y2="2.74456" gradientUnits="userSpaceOnUse">
<stop stop-color="#A7A7A7"/>
<stop offset="0.476808" stop-color="#E9E9E9" stop-opacity="0.992157"/>
<stop offset="1" stop-color="#A7A7A7"/>
</linearGradient>
<linearGradient id="paint2_linear_125_2" x1="95.1274" y1="1.38508" x2="95.2858" y2="23.7109" gradientUnits="userSpaceOnUse">
<stop stop-color="#A7A7A7"/>
<stop offset="0.3079" stop-color="white"/>
<stop offset="1" stop-color="#A7A7A7"/>
</linearGradient>
<linearGradient id="paint3_linear_125_2" x1="17.0764" y1="33.4155" x2="72.2929" y2="33.4155" gradientUnits="userSpaceOnUse">
<stop stop-color="#A7A7A7"/>
<stop offset="0.3079" stop-color="white"/>
<stop offset="1" stop-color="#A8A8A8"/>
</linearGradient>
</defs>
</svg>
