<svg width="84" height="122" viewBox="0 0 84 122" fill="none" xmlns="http://www.w3.org/2000/svg"  oncontextmenu="return false">
 <style
     id="style920">
    @import url(mystyleskhuay.css);
  </style>
<g id="tankkhuayon 1" clip-path="url(#clip0_0_1)">
<g id="tankkhuay 1">
<g id="layer5">
<path id="path17198" d="M4.92369 16.857L4.65436 32.6506L79.3584 32.6604L79.4389 16.9001L54.2565 9.32609V4.03288L29.8369 3.94681L29.9266 9.45518L4.92369 16.857Z" fill="#999999" stroke="#999999" stroke-width="0.264583"/>
</g>
<g id="layer2">
<path id="rect869" d="M79.3584 32.6605H2.92587V118.594H79.3584V32.6605Z" fill="#0F189E"/>
</g>
<g id="layer3">
<path id="path3212" d="M28.1674 2.36426L28.2593 8.19752L3.24772 15.5979L2.8799 38.4499C3.46838 39.2468 3.98806 39.6137 3.93411 40.7438C3.8039 41.5616 3.59067 41.9412 2.97186 42.6592V61.0448C3.52325 61.6544 3.92412 62.1578 3.90864 63.1347C3.84467 63.8802 3.55821 64.2679 3.06381 64.8755L2.97186 79.6766C3.54603 80.1901 3.88726 80.6102 3.92014 81.6792C3.85556 82.3495 3.63439 82.8544 3.06381 83.4205L3.15577 102.188C3.72187 102.954 3.82706 103.278 3.86841 104.011C3.85234 104.723 3.60539 105.294 3.06381 105.882L2.92588 118.594L4.44313 120.074L79.3403 120.031L81.133 118.463V106.107C80.4599 105.6 80.2587 104.999 80.1954 104.185C80.1979 103.159 80.5057 102.5 81.1792 101.921L81.133 83.5507C80.4967 82.8708 80.2125 82.1831 80.1848 81.2872C80.212 80.7346 80.5017 80.1728 81.1792 79.6332V65.0062C80.8991 64.5785 80.3407 64.3745 80.1964 62.9824C80.1858 62.3478 80.6506 61.5487 81.1792 61.1755L81.133 42.5875C80.5726 42.0772 80.2044 41.5474 80.1561 40.5416C80.1702 39.5988 80.4992 39.029 81.1792 38.5827L81.133 16.5556L80.7195 15.5544L55.9837 8.19752L55.9375 2.36426H28.1674Z" stroke="#BEBEBE" stroke-width="6.47885"/>
</g>
<g id="layer4">
<g id="g17071">
<path id="path10034" d="M40.4712 39.179L28.845 38.5765C27.451 39.1533 26.7931 40.3552 26.7228 41.7406C26.7143 43.8139 27.7061 44.2152 28.1717 44.2139L40.3814 42.6647L40.9649 42.9659L41.6832 42.8799L41.5822 38.641H40.4599L40.4712 39.179Z" fill="#FF0000" stroke="black" stroke-width="0.264583"/>
<path id="path10034-8" d="M44.7621 42.3419L56.3881 42.9444C57.7824 42.3676 58.4404 41.1658 58.5103 39.7804C58.5188 37.707 57.5274 37.3058 57.0617 37.307L44.8519 38.8562L44.2683 38.555L43.5501 38.641L43.6511 42.8799H44.7733L44.7621 42.3419Z" fill="#E6E546" stroke="black" stroke-width="0.264583"/>
</g>
<g id="g17075">
<path id="path10034-5" d="M44.7171 73.6542L56.3434 73.0519C57.7372 73.6287 58.3951 74.8303 58.4655 76.2157C58.4741 78.2893 57.4822 78.6905 57.0164 78.6895L44.8069 77.1401L44.2233 77.4415L43.5051 77.3552L43.6061 73.1166H44.7283L44.7171 73.6542Z" fill="#FF0000" stroke="black" stroke-width="0.264583"/>
<path id="path10034-8-4" d="M40.4261 76.8176L28.8 77.4198C27.406 76.8431 26.7481 75.641 26.6778 74.2556C26.6693 72.1825 27.6611 71.7813 28.1267 71.7823L40.3364 73.3316L40.9199 73.0303L41.6382 73.1166L41.5372 77.3552H40.4149L40.4261 76.8176Z" fill="#E6E546" stroke="black" stroke-width="0.264583"/>
</g>
<path id="rect12141" opacity="0.711382" d="M43.5366 3.98825H41.6219V81.7771H43.5366V3.98825Z" fill="url(#paint0_linear_0_1)" stroke="#BEBEBE" stroke-width="0.343802"/>
<path id="rect12248" opacity="0.711382" d="M46.928 9.54709H38.3992V10.4508H46.928V9.54709Z" fill="#483737" stroke="#BEBEBE" stroke-width="0.365001"/>
<path id="rect12250" opacity="0.711382" d="M47.5116 49.87H37.7708V54.0011H47.5116V49.87Z" fill="#483737" stroke="#BEBEBE" stroke-width="0.365"/>
</g>
</g>
</g>
<defs>
<linearGradient id="paint0_linear_0_1" x1="41.5354" y1="42.8826" x2="43.6231" y2="42.8826" gradientUnits="userSpaceOnUse">
<stop stop-color="#483737"/>
<stop offset="1" stop-color="#483737"/>
</linearGradient>
<clipPath id="clip0_0_1">
<rect width="84" height="122" fill="white"/>
</clipPath>
</defs>
</svg>
