<svg width="84" height="122" viewBox="0 0 84 122" fill="none" xmlns="http://www.w3.org/2000/svg"  oncontextmenu="return false">
<g id="tankkhuayoff 1">
<g id="layer5">
<path id="path17198" d="M5.82503 17.8796L5.56046 33.3073L78.946 33.317L79.0251 17.9217L54.287 10.5231V5.35257L30.2986 5.26849L30.3867 10.6492L5.82503 17.8796Z" fill="#999999" stroke="#999999" stroke-width="0.264583"/>
</g>
<g id="layer2">
<path id="rect869" d="M78.946 33.317H3.86247V117.26H78.946V33.317Z" fill="#0F189E"/>
</g>
<g id="layer3">
<path id="path3212" d="M28.6585 3.72263L28.7489 9.42074L4.17863 16.6497L3.81731 38.9723C4.3954 39.7507 4.90591 40.1092 4.85291 41.2131C4.725 42.0119 4.51554 42.3827 3.90764 43.0841V61.044C4.44931 61.6394 4.8431 62.1308 4.82789 63.0851C4.76505 63.8134 4.48365 64.1923 3.99797 64.786L3.90764 79.2439C4.47169 79.7456 4.8069 80.1561 4.83919 81.2C4.77575 81.855 4.55849 82.3483 3.99797 82.9009L4.0883 101.234C4.64442 101.982 4.74775 102.298 4.78837 103.014C4.77258 103.711 4.53 104.268 3.99797 104.843L3.86247 117.26L5.35295 118.705L78.9282 118.663L80.6896 117.132V105.062C80.0282 104.567 79.8307 103.979 79.7683 103.185C79.7708 102.183 80.0734 101.539 80.7348 100.973L80.6896 83.0285C80.0644 82.3642 79.7851 81.6924 79.7581 80.8173C79.7847 80.2773 80.0692 79.7284 80.7348 79.2014V64.9136C80.4597 64.4955 79.9111 64.2962 79.7694 62.9362C79.759 62.3167 80.2157 61.5359 80.7348 61.1715L80.6896 43.0141C80.1392 42.5156 79.7773 41.9981 79.7299 41.0155C79.7439 40.0946 80.0666 39.538 80.7348 39.102L80.6896 17.5852L80.2831 16.6072L55.9839 9.42074L55.9387 3.72263H28.6585Z" stroke="#BEBEBE" stroke-width="6.47885"/>
</g>
<g id="layer4">
<g id="g17071">
<path id="path10034" d="M40.7452 39.6845L29.3242 39.096C27.9548 39.6594 27.3085 40.8335 27.2395 42.1868C27.2311 44.2121 28.2054 44.6041 28.6628 44.6029L40.657 43.0895L41.2303 43.3838L41.9358 43.2997L41.8366 39.159H40.7342L40.7452 39.6845Z" fill="#B3B3B3" stroke="black" stroke-width="0.264583"/>
<path id="path10034-8" d="M44.9604 42.7742L56.3814 43.3628C57.7508 42.7993 58.3971 41.6253 58.4661 40.272C58.4745 38.2466 57.5002 37.8547 57.0428 37.8559L45.0486 39.3692L44.4753 39.075L43.7698 39.159L43.869 43.2997H44.9714L44.9604 42.7742Z" fill="#B3B3B3" stroke="black" stroke-width="0.264583"/>
</g>
<g id="g17075">
<path id="path10034-5" d="M44.9162 73.3613L56.3371 72.7727C57.7065 73.3362 58.3529 74.5102 58.4219 75.8635C58.4302 77.8889 57.456 78.2808 56.9986 78.2796L45.0044 76.7663L44.4311 77.0605L43.7256 76.9765L43.8248 72.8358H44.9272L44.9162 73.3613Z" fill="#B3B3B3" stroke="black" stroke-width="0.264583"/>
<path id="path10034-8-4" d="M40.701 76.451L29.28 77.0395C27.9106 76.4761 27.2643 75.302 27.1952 73.9487C27.1869 71.9234 28.1611 71.5314 28.6186 71.5327L40.6128 73.046L41.186 72.7517L41.8916 72.8358L41.7923 76.9765H40.6899L40.701 76.451Z" fill="#B3B3B3" stroke="black" stroke-width="0.264583"/>
</g>
<path id="rect12141" opacity="0.711382" d="M43.7566 5.30902H41.8756V81.2957H43.7566V5.30902Z" fill="url(#paint0_linear_0_1)" stroke="#BEBEBE" stroke-width="0.343802"/>
<path id="rect12248" opacity="0.711382" d="M47.0881 10.7391H38.7098V11.6219H47.0881V10.7391Z" fill="#483737" stroke="#BEBEBE" stroke-width="0.365001"/>
<path id="rect12250" opacity="0.711382" d="M47.6614 50.1279H38.0925V54.1634H47.6614V50.1279Z" fill="#483737" stroke="#BEBEBE" stroke-width="0.365"/>
</g>
</g>
<defs>
<linearGradient id="paint0_linear_0_1" x1="41.7907" y1="43.3024" x2="43.8415" y2="43.3024" gradientUnits="userSpaceOnUse">
<stop stop-color="#483737"/>
<stop offset="1" stop-color="#483737"/>
</linearGradient>
</defs>
</svg>
