<svg width="167" height="253" viewBox="0 0 167 253" fill="none" xmlns="http://www.w3.org/2000/svg"  oncontextmenu="return false">
  <style
     id="style920">
    @import url(mystyleskhuay.css);
  </style>
<g id="tankkhuay 1">
<g id="layer5">
<path id="path17198" d="M9.78876 34.9576L9.2533 67.7098L157.772 67.7303L157.932 35.0469L107.867 19.3402V8.3633L59.3185 8.18481L59.497 19.6079L9.78876 34.9576Z" fill="#999999" stroke="#999999" stroke-width="0.264583"/>
</g>
<g id="layer2">
<path id="rect869" d="M157.772 67.7303H5.8169V245.937H157.772V67.7303Z" fill="#0F189E"/>
</g>
<g id="layer3">
<path id="path3212" d="M55.9994 4.90295L56.1822 16.9998L6.45676 32.3465L5.7255 79.7362C6.89545 81.3889 7.92863 82.1498 7.82137 84.4934C7.56251 86.1892 7.13859 86.9764 5.90832 88.4655V126.593C7.00455 127.857 7.80152 128.901 7.77074 130.927C7.64355 132.473 7.07405 133.277 6.09113 134.537L5.90832 165.231C7.04984 166.296 7.72824 167.167 7.79359 169.384C7.66521 170.774 7.22551 171.821 6.09113 172.995L6.27395 211.914C7.39943 213.503 7.60855 214.174 7.69076 215.694C7.6588 217.172 7.16785 218.355 6.09113 219.576L5.81691 245.937L8.83335 249.006L157.736 248.916L161.3 245.666V220.041C159.962 218.991 159.562 217.743 159.436 216.056C159.441 213.929 160.053 212.561 161.392 211.361L161.3 173.265C160.035 171.855 159.47 170.429 159.415 168.571C159.469 167.425 160.045 166.26 161.392 165.141V134.808C160.835 133.921 159.725 133.498 159.438 130.611C159.417 129.295 160.341 127.638 161.392 126.864L161.3 88.3168C160.186 87.2585 159.454 86.1599 159.358 84.0739C159.386 82.1188 160.04 80.9373 161.392 80.0116L161.3 34.3325L160.478 32.2562L111.301 16.9998L111.209 4.90295H55.9994Z" stroke="#BEBEBE" stroke-width="6.47885"/>
</g>
<g id="layer4">
<g id="g17071">
<path id="path10034" d="M80.4605 81.2482L57.3466 79.9988C54.5752 81.1949 53.2672 83.6874 53.1275 86.5604C53.1106 90.8601 55.0823 91.6922 56.008 91.6896L80.282 88.4768L81.4422 89.1015L82.8701 88.9231L82.6693 80.1327H80.4382L80.4605 81.2482Z" fill="#FF0000" stroke="black" stroke-width="0.264583"/>
<path id="path10034-8" d="M88.9913 87.8075L112.105 89.0569C114.877 87.8608 116.185 85.3684 116.324 82.4954C116.341 78.1957 114.37 77.3636 113.444 77.3662L89.1698 80.5789L88.0096 79.9542L86.5817 80.1327L86.7825 88.9231H89.0136L88.9913 87.8075Z" fill="#E6E546" stroke="black" stroke-width="0.264583"/>
</g>
<g id="g17075">
<path id="path10034-5" d="M88.9018 152.742L112.016 151.493C114.787 152.689 116.095 155.181 116.235 158.054C116.252 162.354 114.28 163.186 113.354 163.184L89.0803 159.971L87.9201 160.596L86.4922 160.417L86.693 151.627H88.9241L88.9018 152.742Z" fill="#FF0000" stroke="black" stroke-width="0.264583"/>
<path id="path10034-8-4" d="M80.371 159.302L57.2571 160.551C54.4858 159.355 53.1777 156.862 53.038 153.989C53.0211 149.69 54.9928 148.858 55.9185 148.86L80.1925 152.073L81.3527 151.448L82.7806 151.627L82.5798 160.417H80.3487L80.371 159.302Z" fill="#E6E546" stroke="black" stroke-width="0.264583"/>
</g>
<path id="rect12141" opacity="0.711382" d="M86.555 8.27075H82.7483V169.587H86.555V8.27075Z" fill="url(#paint0_linear_0_1)" stroke="#BEBEBE" stroke-width="0.343802"/>
<path id="rect12248" opacity="0.711382" d="M93.2974 19.7985H76.3413V21.6726H93.2974V19.7985Z" fill="#483737" stroke="#BEBEBE" stroke-width="0.365001"/>
<path id="rect12250" opacity="0.711382" d="M94.4576 103.419H75.0919V111.986H94.4576V103.419Z" fill="#483737" stroke="#BEBEBE" stroke-width="0.365"/>
</g>
</g>
<defs>
<linearGradient id="paint0_linear_0_1" x1="82.5764" y1="88.9288" x2="86.7269" y2="88.9288" gradientUnits="userSpaceOnUse">
<stop stop-color="#483737"/>
<stop offset="1" stop-color="#483737"/>
</linearGradient>
</defs>
</svg>
