<svg  width="50" height="25" viewBox="0 0 342 245" fill="none" xmlns="http://www.w3.org/2000/svg" oncontextmenu="return false">
<g id="Q_ERROR 1">
<g id="layer1">
<path id="path12903" d="M273.779 109.333C273.779 135.871 263.334 161.342 244.703 180.241C226.071 199.139 200.751 209.945 174.215 210.323C147.68 210.701 122.062 200.62 102.9 182.259C83.7389 163.899 72.5734 138.735 71.8181 112.207C71.0627 85.68 80.7783 59.9211 98.8641 40.5002C116.95 21.0792 141.953 9.55671 168.466 8.42389C194.98 7.29108 220.875 16.639 240.551 34.4466C260.228 52.2541 272.105 77.0903 273.615 103.585" fill="#3F4C40"/>
<path id="rect29661" d="M216.984 198.755C203.626 202.181 188.996 204.018 174.133 204.136C160.841 204.231 147.643 202.949 135.295 200.363C117.26 207.194 112.489 216.81 105.912 226.047H260.044C251.714 215.404 248.437 203.464 216.984 198.755V198.755Z" fill="#FF2D00"/>
<path id="rect6772" opacity="0.801282" d="M231.986 166.872C221.502 185.238 207.954 188.757 196.404 189.353C194.296 189.462 191.114 189.118 189.244 189.122C186.431 187.515 184.586 185.174 185.293 182.066C192.011 162.579 189.743 144.629 182.653 127.206C187.687 123.849 190.724 119.873 193.096 115.692C204.174 121.121 210.917 129.246 218.214 137.027C224.601 146.183 231.03 155.553 231.986 166.873L231.986 166.872Z" fill="#AB393B"/>
<path id="path9203" opacity="0.801282" d="M114.103 49.4483C124.587 31.0821 138.134 27.5633 149.685 26.9668C151.793 26.858 154.974 27.2027 156.844 27.1997C159.658 28.8066 161.503 31.147 160.796 34.2551C154.078 53.7428 156.345 71.6919 163.435 89.1151C158.401 92.4723 155.365 96.4482 152.992 100.629C141.914 95.2006 135.172 87.0751 127.874 79.2948C121.488 70.1385 115.058 60.7683 114.103 49.4482L114.103 49.4483Z" fill="#AB393B"/>
<path id="path9205" opacity="0.801282" d="M92.27 129.492C81.5399 111.269 85.2172 97.7636 90.4384 87.4433C91.3913 85.5597 93.271 82.9699 94.1978 81.3459C96.9904 79.7023 99.9381 79.2643 102.284 81.4219C115.858 96.9347 132.562 103.885 151.205 106.388C151.617 112.425 153.559 117.036 156.009 121.172C145.794 128.089 135.392 129.903 125.014 132.37C113.895 133.364 102.569 134.288 92.2701 129.492L92.27 129.492Z" fill="#AB393B"/>
<path id="path9207" opacity="0.801282" d="M251.578 88.7011C262.308 106.925 258.63 120.43 253.409 130.75C252.456 132.634 250.577 135.224 249.65 136.848C246.857 138.491 243.91 138.929 241.564 136.772C227.989 121.259 211.286 114.309 192.643 111.805C192.23 105.769 190.288 101.158 187.839 97.0216C198.054 90.105 208.456 88.291 218.833 85.8237C229.953 84.8301 241.279 83.9062 251.578 88.7013L251.578 88.7011Z" fill="#AB393B"/>
<path id="path9209" opacity="0.801282" d="M193.551 27.8115C214.697 27.5167 224.608 37.4005 230.987 47.0481C232.152 48.8088 233.469 51.725 234.422 53.3341C234.466 56.5741 233.387 59.3518 230.351 60.3212C210.151 64.4295 195.84 75.4976 184.43 90.4531C178.982 87.8211 174.015 87.2243 169.208 87.3045C168.259 75.0041 171.835 65.0697 174.832 54.8324C179.477 44.6806 184.284 34.3838 193.551 27.8123L193.551 27.8115Z" fill="#AB393B"/>
<path id="path9211" opacity="0.801282" d="M151.682 188.786C130.536 189.081 120.626 179.197 114.246 169.55C113.082 167.789 111.764 164.873 110.812 163.264C110.767 160.024 111.847 157.246 114.883 156.277C135.083 152.168 149.394 141.1 160.803 126.145C166.252 128.777 171.218 129.374 176.026 129.293C176.974 141.594 173.398 151.528 170.401 161.765C165.757 171.917 160.949 182.214 151.682 188.786L151.682 188.786Z" fill="#AB393B"/>
<path id="path9235" opacity="0.801282" d="M153.524 118.315C150.9 113.338 150.341 107.528 151.967 102.141C153.594 96.7549 157.274 92.2249 162.214 89.5308C167.153 86.8367 172.955 86.1949 178.364 87.7442C183.773 89.2935 188.355 92.9094 191.119 97.8101C193.883 102.711 194.607 108.502 193.135 113.933C191.663 119.363 188.113 123.996 183.252 126.83C178.391 129.664 172.61 130.47 167.159 129.076C161.708 127.681 157.025 124.197 154.123 119.377" fill="#B0D6B2"/>
<path id="rect9339" opacity="0.801282" d="M176.769 125.38L180.478 123.989C181.155 123.736 181.516 122.975 181.286 122.29C181.056 121.605 180.32 121.256 179.644 121.51L175.935 122.901C175.259 123.155 174.897 123.915 175.127 124.6C175.358 125.285 176.093 125.634 176.769 125.38Z" fill="#ECECEC"/>
<path id="rect9339-8" opacity="0.801282" d="M166.201 93.8719L169.91 92.4807C170.586 92.227 170.948 91.4662 170.718 90.7815C170.487 90.0968 169.752 89.7474 169.076 90.0011L165.367 91.3922C164.69 91.646 164.329 92.4067 164.559 93.0914C164.79 93.7762 165.525 94.1256 166.201 93.8719Z" fill="#ECECEC"/>
<path id="path11875" opacity="0.801282" d="M160.647 114.383C159.031 111.318 158.687 107.74 159.688 104.423C160.69 101.105 162.956 98.3154 165.999 96.6562C169.041 94.9971 172.613 94.6018 175.945 95.556C179.276 96.5101 182.098 98.737 183.8 101.755C185.502 104.773 185.948 108.34 185.042 111.685C184.135 115.029 181.949 117.882 178.955 119.627C175.961 121.372 172.401 121.869 169.044 121.01C165.687 120.151 162.803 118.006 161.016 115.037" fill="#494949"/>
<path id="path11966" opacity="0.801282" d="M165.606 111.77C164.677 110.007 164.479 107.95 165.055 106.043C165.631 104.136 166.934 102.532 168.683 101.578C170.432 100.624 172.486 100.396 174.402 100.945C176.317 101.494 177.939 102.774 178.918 104.509C179.897 106.244 180.153 108.295 179.632 110.218C179.111 112.141 177.854 113.781 176.132 114.785C174.411 115.788 172.364 116.074 170.434 115.58C168.504 115.086 166.846 113.852 165.818 112.146" fill="#ECECEC"/>
<path id="rect15660" d="M194.926 10.7314H328.898V74.7539H253.465C239.792 40.385 220.551 18.4364 194.926 10.7314Z" fill="#FF2D00"/>
<path id="rect26505" d="M339.822 5.54036H324.822V80.5403H339.822V5.54036Z" fill="#FF2D00"/>
<path id="path29629" d="M149.647 205.457H8.76953V141.434H88.0907C102.468 175.803 122.701 197.752 149.647 205.457Z" fill="#FF2D00"/>
<path id="rect26505-0" d="M18.4727 136.85H3.47272V211.849H18.4727V136.85Z" fill="#FF2D00"/>
<path id="rect6140" opacity="0.801282" d="M246.163 42.34H100.309V45.3302H246.163V42.34Z" stroke="#323634" stroke-width="1.10381" stroke-linecap="square"/>
<path id="rect6140-0" opacity="0.801282" d="M254.141 52.4924H89.8558V55.9183H254.141V52.4924Z" stroke="#323634" stroke-width="1.12663" stroke-linecap="square"/>
<path id="rect6140-5" opacity="0.801282" d="M261.55 62.7651H84.9219V66.3862H261.55V62.7651Z" stroke="#323634" stroke-width="1.13386" stroke-linecap="square"/>
<path id="rect6140-6" opacity="0.801282" d="M264.015 73.0078H78.9216V76.8841H264.015V73.0078Z" stroke="#323634" stroke-width="1.12456" stroke-linecap="square"/>
<path id="rect6140-8" opacity="0.801282" d="M267.896 83.3218H76.1016V87.3108H267.896V83.3218Z" stroke="#323634" stroke-width="1.12753" stroke-linecap="square"/>
<path id="rect6140-4" opacity="0.801282" d="M269.658 93.6406H73.632V97.7324H269.658V93.6406Z" stroke="#323634" stroke-width="1.12589" stroke-linecap="square"/>
<path id="rect6140-2" opacity="0.801282" d="M270.54 104.001H73.1034V108.113H270.54V104.001Z" stroke="#323634" stroke-width="1.12681" stroke-linecap="square"/>
<path id="rect6140-9" opacity="0.801282" d="M269.657 114.358H72.5726V118.496H269.657V114.358Z" stroke="#323634" stroke-width="1.12331" stroke-linecap="square"/>
<path id="rect6140-0-6" opacity="0.801282" d="M268.6 124.773H74.69V128.822H268.6V124.773Z" stroke="#323634" stroke-width="1.12581" stroke-linecap="square"/>
<path id="rect6140-5-1" opacity="0.801282" d="M266.484 135.194H77.1591V139.141H266.484V135.194Z" stroke="#323634" stroke-width="1.12655" stroke-linecap="square"/>
<path id="rect6140-6-5" opacity="0.801282" d="M263.017 145.697H83.4549V149.379H263.017V145.697Z" stroke="#323634" stroke-width="1.1063" stroke-linecap="square"/>
<path id="rect6140-8-7" opacity="0.801282" d="M257.968 156.171H88.5037V159.646H257.968V156.171Z" stroke="#323634" stroke-width="1.09223" stroke-linecap="square"/>
<path id="rect6140-4-1" opacity="0.801282" d="M251.877 166.666H94.5951V169.891H251.877V166.666Z" stroke="#323634" stroke-width="1.10934" stroke-linecap="square"/>
<path id="rect6140-2-3" opacity="0.801282" d="M243.623 177.206H102.849V180.092H243.623V177.206Z" stroke="#323634" stroke-width="1.099" stroke-linecap="square"/>
<path id="rect6383" opacity="0.801282" d="M104.627 41.2042L104.169 180.828L107.032 180.837L107.49 41.2136L104.627 41.2042Z" stroke="#323634" stroke-width="1.098" stroke-linecap="square"/>
<path id="rect6385" opacity="0.801282" d="M114.84 32.0736L114.321 190.025L117.56 190.036L118.078 32.0842L114.84 32.0736Z" stroke="#323634" stroke-width="1.11162" stroke-linecap="square"/>
<path id="rect6387" opacity="0.801282" d="M125.916 26.0196L125.357 196.094L128.844 196.106L129.403 26.0311L125.916 26.0196Z" stroke="#323634" stroke-width="1.11177" stroke-linecap="square"/>
<path id="rect6389" opacity="0.801282" d="M136.007 21.5574L135.419 200.623L139.09 200.635L139.678 21.5695L136.007 21.5574Z" stroke="#323634" stroke-width="1.11177" stroke-linecap="square"/>
<path id="rect6391" opacity="0.801282" d="M146.118 18.3057L145.509 203.941L149.315 203.953L149.924 18.3181L146.118 18.3057Z" stroke="#323634" stroke-width="1.11177" stroke-linecap="square"/>
<path id="rect6393" opacity="0.801282" d="M156.283 12.4503L155.672 205.142L159.486 205.155L160.097 12.4632L156.283 12.4503Z" stroke="#323634" stroke-width="1.11177" stroke-linecap="square"/>
<path id="rect6395" opacity="0.801282" d="M165.871 13.2652L165.242 207.031L169.17 207.044L169.799 13.2783L165.871 13.2652Z" stroke="#323634" stroke-width="1.11177" stroke-linecap="square"/>
<path id="rect6397" opacity="0.801282" d="M176.584 13.6875L175.96 206.332L179.858 206.345L180.482 13.7004L176.584 13.6875Z" stroke="#323634" stroke-width="1.11177" stroke-linecap="square"/>
<path id="rect6399" opacity="0.801282" d="M187.292 15.5969L186.671 204.84L190.55 204.853L191.172 15.6097L187.292 15.5969Z" stroke="#323634" stroke-width="1.11177" stroke-linecap="square"/>
<path id="rect6401" opacity="0.801282" d="M196.966 15.0066L196.359 202.643L200.148 202.656L200.755 15.0193L196.966 15.0066Z" stroke="#323634" stroke-width="1.11177" stroke-linecap="square"/>
<path id="rect6403" opacity="0.801282" d="M207.132 18.8495L206.524 200.121L210.319 200.133L210.927 18.8617L207.132 18.8495Z" stroke="#323634" stroke-width="1.11177" stroke-linecap="square"/>
<path id="rect6405" opacity="0.801282" d="M218.376 22.7992L217.793 195.229L221.429 195.241L222.011 22.8108L218.376 22.7992Z" stroke="#323634" stroke-width="1.11459" stroke-linecap="square"/>
<path id="rect6407" opacity="0.801282" d="M228.841 28.3968L228.295 189.951L231.704 189.962L232.25 28.4076L228.841 28.3968Z" stroke="#323634" stroke-width="1.13386" stroke-linecap="square"/>
<path id="rect6409" opacity="0.801282" d="M239.376 37.9543L238.893 182.213L241.909 182.222L242.393 37.964L239.376 37.9543Z" stroke="#323634" stroke-width="1.13386" stroke-linecap="square"/>
<path id="path13010" d="M175.706 8.01733C173.212 7.93847 170.715 7.95208 168.222 8.05815C141.707 9.19099 116.704 20.7138 98.6186 40.1351C80.5328 59.5564 70.8175 85.3156 71.5733 111.843C72.3288 138.371 83.4945 163.535 102.656 181.895C121.818 200.255 147.436 210.336 173.972 209.958C200.507 209.58 225.827 198.774 244.458 179.876C263.089 160.978 273.534 135.506 273.534 108.968L273.37 103.22C271.933 78.017 261.111 54.2654 243.034 36.6443C224.958 19.0232 200.938 8.8102 175.706 8.01714V8.01733ZM175.313 20.5115C197.422 21.2061 218.47 30.1549 234.309 45.5951C250.149 61.0352 259.632 81.8472 260.892 103.931L261.034 108.968C261.034 132.222 251.882 154.541 235.557 171.101C219.232 187.66 197.045 197.129 173.794 197.461C150.542 197.791 128.095 188.958 111.304 172.869C94.5142 156.781 84.7308 134.731 84.0693 111.486C83.4074 88.2416 91.9205 65.6706 107.768 48.6532C123.616 31.6357 145.524 21.5392 168.757 20.5466C170.941 20.4543 173.128 20.4429 175.313 20.5126L175.313 20.5115Z" fill="#FF2D00"/>
<path id="rect15392" d="M269.238 74.5516H76.8464V130.388H269.238V74.5516Z" fill="#D22929"/>
<path id="text6161" d="M124.931 101.738H112.607V111.816H126.923V114.882H108.857V86.4449H126.728V89.5308H112.607V98.6715H124.931V101.738ZM142.021 103.379H135.341V114.882H131.571V86.4449H140.985C144.189 86.4449 146.649 87.1741 148.368 88.6324C150.1 90.0907 150.966 92.2131 150.966 94.9996C150.966 96.7704 150.484 98.3134 149.521 99.6285C148.57 100.944 147.242 101.927 145.536 102.578L152.216 114.648V114.882H148.192L142.021 103.379ZM135.341 100.312H141.103C142.965 100.312 144.442 99.8303 145.536 98.8668C146.643 97.9032 147.196 96.6142 147.196 94.9996C147.196 93.2418 146.669 91.8941 145.614 90.9566C144.573 90.0191 143.062 89.5439 141.083 89.5308H135.341V100.312ZM166.669 103.379H159.989V114.882H156.22V86.4449H165.634C168.837 86.4449 171.298 87.1741 173.017 88.6324C174.748 90.0907 175.614 92.2131 175.614 94.9996C175.614 96.7704 175.133 98.3134 174.169 99.6285C173.218 100.944 171.89 101.927 170.185 102.578L176.864 114.648V114.882H172.841L166.669 103.379ZM159.989 100.312H165.751C167.613 100.312 169.091 99.8303 170.185 98.8668C171.291 97.9032 171.845 96.6142 171.845 94.9996C171.845 93.2418 171.317 91.8941 170.263 90.9566C169.221 90.0191 167.711 89.5439 165.732 89.5308H159.989V100.312ZM202.763 101.582C202.763 104.368 202.294 106.803 201.357 108.886C200.419 110.957 199.091 112.539 197.372 113.632C195.653 114.726 193.648 115.273 191.357 115.273C189.117 115.273 187.131 114.726 185.399 113.632C183.668 112.526 182.32 110.957 181.357 108.925C180.406 106.881 179.918 104.518 179.892 101.836V99.7848C179.892 97.0504 180.367 94.635 181.317 92.5387C182.268 90.4423 183.609 88.8407 185.341 87.734C187.086 86.6142 189.078 86.0543 191.317 86.0543C193.596 86.0543 195.601 86.6077 197.333 87.7144C199.078 88.8082 200.419 90.4032 201.357 92.4996C202.294 94.5829 202.763 97.0113 202.763 99.7848V101.582ZM199.032 99.7457C199.032 96.3733 198.355 93.7887 197.001 91.9918C195.647 90.1819 193.752 89.2769 191.317 89.2769C188.948 89.2769 187.079 90.1819 185.712 91.9918C184.358 93.7887 183.661 96.2887 183.622 99.4918V101.582C183.622 104.85 184.306 107.421 185.673 109.296C187.053 111.158 188.948 112.089 191.357 112.089C193.778 112.089 195.653 111.211 196.982 109.453C198.31 107.682 198.993 105.149 199.032 101.855V99.7457ZM218.817 103.379H212.138V114.882H208.368V86.4449H217.782C220.985 86.4449 223.446 87.1741 225.165 88.6324C226.897 90.0907 227.763 92.2131 227.763 94.9996C227.763 96.7704 227.281 98.3134 226.317 99.6285C225.367 100.944 224.039 101.927 222.333 102.578L229.013 114.648V114.882H224.989L218.817 103.379ZM212.138 100.312H217.899C219.761 100.312 221.239 99.8303 222.333 98.8668C223.44 97.9032 223.993 96.6142 223.993 94.9996C223.993 93.2418 223.466 91.8941 222.411 90.9566C221.37 90.0191 219.859 89.5439 217.88 89.5308H212.138V100.312Z" fill="white"/>
</g>
</g>
</svg>
