<svg width="110" height="60"  viewBox="0 0 342 245" fill="none" xmlns="http://www.w3.org/2000/svg" oncontextmenu="return false">
<g id="Q_OFF 1">
<g id="layer1">
<path id="path12903-1" d="M273.595 115.393C273.595 141.932 263.15 167.403 244.519 186.302C225.887 205.2 200.567 216.006 174.031 216.384C147.496 216.762 121.878 206.681 102.717 188.32C83.555 169.96 72.3894 144.796 71.6341 118.268C70.8788 91.7408 80.5943 65.982 98.6801 46.5611C116.766 27.1401 141.769 15.6175 168.283 14.4847C194.796 13.3519 220.691 22.6998 240.367 40.5074C260.044 58.315 271.921 83.1512 273.431 109.646" fill="#3F4C40"/>
<path id="rect29661-0" d="M216.8 204.816C203.442 208.242 188.812 210.079 173.949 210.197C160.657 210.292 147.459 209.01 135.111 206.424C117.076 213.255 112.305 222.871 105.728 232.108H259.861C251.53 221.465 248.253 209.525 216.8 204.816V204.816Z" fill="#999999" fill-opacity="0.992157"/>
<path id="rect6772-6" opacity="0.801282" d="M146.459 34.4822C164.297 23.1232 177.922 26.3274 188.419 31.1856C190.334 32.0722 192.988 33.8605 194.643 34.7301C196.383 37.4637 196.924 40.3943 194.849 42.8142C179.819 56.9211 173.456 73.8569 171.604 92.5761C165.585 93.1986 161.045 95.3 156.996 97.8926C149.728 87.9245 147.552 77.5925 144.725 67.3072C143.344 56.2291 142.026 44.9421 146.459 34.4823L146.459 34.4822Z" fill="#9F9F9F"/>
<path id="path9203-4" opacity="0.801282" d="M195.989 193.326C178.151 204.685 164.525 201.481 154.029 196.623C152.114 195.736 149.46 193.948 147.805 193.078C146.065 190.345 145.524 187.414 147.599 184.994C162.629 170.887 168.992 153.951 170.844 135.232C176.863 134.61 181.403 132.508 185.451 129.916C192.72 139.884 194.896 150.216 197.723 160.501C199.104 171.579 200.422 182.866 195.989 193.326L195.989 193.326Z" fill="#9F9F9F"/>
<path id="path9205-9" opacity="0.801282" d="M252.627 132.697C253.622 153.821 244.071 164.054 234.64 170.749C232.919 171.971 230.048 173.385 228.471 174.39C225.234 174.542 222.423 173.555 221.353 170.552C216.578 150.5 205.042 136.563 189.717 125.655C192.167 120.122 192.599 115.138 192.361 110.336C204.623 108.981 214.671 112.226 225.002 114.883C235.302 119.189 245.752 123.653 252.627 132.697L252.627 132.697Z" fill="#9F9F9F"/>
<path id="path9207-1" opacity="0.801282" d="M92.677 94.4993C91.6821 73.3749 101.233 63.1423 110.664 56.4472C112.385 55.2252 115.255 53.8107 116.832 52.8062C120.069 52.6543 122.881 53.6413 123.95 56.6439C128.725 76.6965 140.261 90.6335 155.586 101.541C153.136 107.074 152.704 112.058 152.943 116.86C140.68 118.215 130.633 114.97 120.302 112.313C110.002 108.007 99.5518 103.543 92.677 94.4994L92.677 94.4993Z" fill="#9F9F9F"/>
<path id="path9209-3" opacity="0.801282" d="M115.617 175.421C96.7733 165.822 92.6147 152.457 91.4699 140.948C91.2609 138.848 91.4548 135.653 91.3626 133.786C92.8338 130.899 95.084 128.945 98.2221 129.503C118.007 135.288 135.828 132.169 152.895 124.259C156.487 129.128 160.603 131.972 164.892 134.143C159.996 145.467 152.2 152.588 144.776 160.247C135.933 167.062 126.879 173.929 115.617 175.421H115.617Z" fill="#9F9F9F"/>
<path id="path9211-7" opacity="0.801282" d="M227.716 52.5401C246.56 62.1392 250.719 75.5042 251.864 87.0132C252.073 89.1138 251.879 92.3081 251.971 94.1756C250.5 97.0626 248.249 99.0165 245.111 98.4583C225.326 92.6738 207.505 95.7919 190.439 103.702C186.846 98.8333 182.73 95.9893 178.441 93.8182C183.337 82.4945 191.133 75.3737 198.558 67.7148C207.4 60.8998 216.454 54.0326 227.716 52.5401H227.716Z" fill="#9F9F9F"/>
<path id="path9235-6" opacity="0.801282" d="M192.906 113.821C192.906 119.448 190.691 124.848 186.741 128.855C182.791 132.862 177.422 135.153 171.797 135.233C166.171 135.313 160.739 133.176 156.677 129.283C152.614 125.39 150.247 120.055 150.087 114.431C149.926 108.806 151.986 103.345 155.821 99.2276C159.655 95.1101 164.956 92.6671 170.578 92.4269C176.199 92.1867 181.689 94.1687 185.861 97.9441C190.033 101.72 192.551 106.985 192.871 112.603" fill="#C4D1C5"/>
<path id="rect9339-9" opacity="0.801282" d="M175.958 96.9334L172.028 96.4347C171.312 96.3437 170.637 96.8481 170.522 97.5612C170.406 98.2744 170.893 98.9262 171.61 99.0172L175.54 99.516C176.257 99.6069 176.931 99.1025 177.047 98.3894C177.162 97.6762 176.675 97.0244 175.958 96.9334Z" fill="#ECECEC"/>
<path id="rect9339-8-2" opacity="0.801282" d="M170.615 129.735L166.685 129.236C165.969 129.145 165.294 129.65 165.179 130.363C165.063 131.076 165.551 131.728 166.267 131.819L170.197 132.317C170.914 132.408 171.588 131.904 171.704 131.191C171.819 130.478 171.332 129.826 170.615 129.735Z" fill="#ECECEC"/>
<path id="path11875-1" opacity="0.801282" d="M184.216 113.459C184.216 116.924 182.853 120.25 180.42 122.717C177.987 125.185 174.681 126.596 171.216 126.645C167.752 126.695 164.407 125.378 161.905 122.981C159.403 120.584 157.945 117.298 157.846 113.834C157.748 110.371 159.016 107.007 161.378 104.471C163.739 101.935 167.004 100.431 170.466 100.283C173.928 100.135 177.309 101.356 179.878 103.681C182.447 106.006 183.998 109.249 184.195 112.708" fill="#494949"/>
<path id="path11966-6" opacity="0.801282" d="M178.611 113.459C178.611 115.451 177.827 117.363 176.428 118.782C175.029 120.201 173.129 121.012 171.137 121.04C169.145 121.069 167.221 120.312 165.783 118.934C164.344 117.555 163.506 115.666 163.449 113.675C163.393 111.683 164.122 109.749 165.48 108.292C166.838 106.834 168.715 105.969 170.705 105.883C172.695 105.798 174.639 106.5 176.117 107.837C177.594 109.174 178.485 111.038 178.599 113.027" fill="#ECECEC"/>
<path id="rect15660-7" d="M194.742 16.7922H328.714V80.8148H253.281C239.608 46.4459 220.367 24.4972 194.742 16.7922Z" fill="#999999" fill-opacity="0.992157"/>
<path id="rect26505-1" d="M339.638 11.6012H324.638V86.6012H339.638V11.6012Z" fill="#999999" fill-opacity="0.992157"/>
<path id="path29629-1" d="M149.463 211.518H8.58554V147.495H87.9067C102.284 181.864 122.517 203.813 149.463 211.518V211.518Z" fill="#999999" fill-opacity="0.992157"/>
<path id="rect26505-0-1" d="M18.2887 142.91H3.28873V217.91H18.2887V142.91Z" fill="#999999" fill-opacity="0.992157"/>
<path id="rect6140-1" opacity="0.801282" d="M245.979 48.4008H100.125V51.391H245.979V48.4008Z" stroke="#323634" stroke-width="1.10381" stroke-linecap="square"/>
<path id="rect6140-0-2" opacity="0.801282" d="M253.958 58.5533H89.672V61.9792H253.958V58.5533Z" stroke="#323634" stroke-width="1.12663" stroke-linecap="square"/>
<path id="rect6140-5-17" opacity="0.801282" d="M261.366 68.826H84.738V72.4471H261.366V68.826Z" stroke="#323634" stroke-width="1.13386" stroke-linecap="square"/>
<path id="rect6140-6-51" opacity="0.801282" d="M263.831 79.0687H78.7377V82.945H263.831V79.0687Z" stroke="#323634" stroke-width="1.12456" stroke-linecap="square"/>
<path id="rect6140-8-9" opacity="0.801282" d="M267.712 89.3827H75.9177V93.3716H267.712V89.3827Z" stroke="#323634" stroke-width="1.12753" stroke-linecap="square"/>
<path id="rect6140-4-3" opacity="0.801282" d="M269.474 99.7014H73.4481V103.793H269.474V99.7014Z" stroke="#323634" stroke-width="1.12589" stroke-linecap="square"/>
<path id="rect6140-2-5" opacity="0.801282" d="M270.356 110.061H72.9195V114.174H270.356V110.061Z" stroke="#323634" stroke-width="1.12681" stroke-linecap="square"/>
<path id="rect6140-9-5" opacity="0.801282" d="M269.473 120.419H72.3887V124.557H269.473V120.419Z" stroke="#323634" stroke-width="1.12331" stroke-linecap="square"/>
<path id="rect6140-0-6-1" opacity="0.801282" d="M268.416 130.834H74.5061V134.883H268.416V130.834Z" stroke="#323634" stroke-width="1.12581" stroke-linecap="square"/>
<path id="rect6140-5-1-5" opacity="0.801282" d="M266.301 141.255H76.9752V145.202H266.301V141.255Z" stroke="#323634" stroke-width="1.12655" stroke-linecap="square"/>
<path id="rect6140-6-5-2" opacity="0.801282" d="M262.833 151.758H83.271V155.44H262.833V151.758Z" stroke="#323634" stroke-width="1.1063" stroke-linecap="square"/>
<path id="rect6140-8-7-6" opacity="0.801282" d="M257.785 162.232H88.3198V165.706H257.785V162.232Z" stroke="#323634" stroke-width="1.09223" stroke-linecap="square"/>
<path id="rect6140-4-1-7" opacity="0.801282" d="M251.693 172.727H94.4111V175.952H251.693V172.727Z" stroke="#323634" stroke-width="1.10934" stroke-linecap="square"/>
<path id="rect6140-2-3-8" opacity="0.801282" d="M243.439 183.267H102.665V186.153H243.439V183.267Z" stroke="#323634" stroke-width="1.099" stroke-linecap="square"/>
<path id="rect6383-3" opacity="0.801282" d="M104.444 47.2651L103.985 186.889L106.848 186.898L107.306 47.2745L104.444 47.2651Z" stroke="#323634" stroke-width="1.098" stroke-linecap="square"/>
<path id="rect6385-1" opacity="0.801282" d="M114.656 38.1345L114.137 196.086L117.376 196.097L117.894 38.1451L114.656 38.1345Z" stroke="#323634" stroke-width="1.11162" stroke-linecap="square"/>
<path id="rect6387-9" opacity="0.801282" d="M125.732 32.0805L125.174 202.155L128.66 202.167L129.219 32.0919L125.732 32.0805Z" stroke="#323634" stroke-width="1.11177" stroke-linecap="square"/>
<path id="rect6389-6" opacity="0.801282" d="M135.823 27.6183L135.235 206.684L138.906 206.696L139.494 27.6304L135.823 27.6183Z" stroke="#323634" stroke-width="1.11177" stroke-linecap="square"/>
<path id="rect6391-3" opacity="0.801282" d="M145.934 24.3665L145.325 210.002L149.131 210.014L149.74 24.379L145.934 24.3665Z" stroke="#323634" stroke-width="1.11177" stroke-linecap="square"/>
<path id="rect6393-8" opacity="0.801282" d="M156.099 18.511L155.489 211.203L159.302 211.216L159.913 18.524L156.099 18.511Z" stroke="#323634" stroke-width="1.11177" stroke-linecap="square"/>
<path id="rect6395-0" opacity="0.801282" d="M165.687 19.3261L165.058 213.091L168.986 213.105L169.615 19.3391L165.687 19.3261Z" stroke="#323634" stroke-width="1.11177" stroke-linecap="square"/>
<path id="rect6397-5" opacity="0.801282" d="M176.4 19.7483L175.776 212.393L179.674 212.406L180.298 19.7613L176.4 19.7483Z" stroke="#323634" stroke-width="1.11177" stroke-linecap="square"/>
<path id="rect6399-1" opacity="0.801282" d="M187.108 21.6578L186.487 210.901L190.367 210.914L190.988 21.6706L187.108 21.6578Z" stroke="#323634" stroke-width="1.11177" stroke-linecap="square"/>
<path id="rect6401-3" opacity="0.801282" d="M196.782 21.0675L196.176 208.704L199.964 208.717L200.571 21.0802L196.782 21.0675Z" stroke="#323634" stroke-width="1.11177" stroke-linecap="square"/>
<path id="rect6403-9" opacity="0.801282" d="M206.948 24.9103L206.34 206.182L210.135 206.194L210.743 24.9225L206.948 24.9103Z" stroke="#323634" stroke-width="1.11177" stroke-linecap="square"/>
<path id="rect6405-3" opacity="0.801282" d="M218.192 28.8601L217.61 201.29L221.245 201.302L221.827 28.8717L218.192 28.8601Z" stroke="#323634" stroke-width="1.11459" stroke-linecap="square"/>
<path id="rect6407-5" opacity="0.801282" d="M228.657 34.4576L228.111 196.012L231.52 196.023L232.066 34.4685L228.657 34.4576Z" stroke="#323634" stroke-width="1.13386" stroke-linecap="square"/>
<path id="rect6409-3" opacity="0.801282" d="M239.192 44.0151L238.709 188.273L241.726 188.283L242.209 44.0248L239.192 44.0151Z" stroke="#323634" stroke-width="1.13386" stroke-linecap="square"/>
<path id="path13010-1" d="M175.522 14.0781C173.028 13.9993 170.531 14.013 168.038 14.1191C141.524 15.252 116.521 26.7748 98.4347 46.1961C80.3489 65.6174 70.6335 91.3767 71.3893 117.904C72.1448 144.432 83.3106 169.596 102.472 187.956C121.634 206.317 147.252 216.397 173.788 216.019C200.323 215.642 225.643 204.835 244.274 185.937C262.905 167.039 273.35 141.567 273.35 115.029L273.186 109.281C271.75 84.078 260.927 60.3264 242.85 42.7053C224.774 25.0842 200.754 14.8712 175.522 14.0781V14.0781ZM175.13 26.5723C197.239 27.2669 218.286 36.2157 234.126 51.6559C249.965 67.096 259.449 87.9081 260.708 109.992L260.85 115.029C260.85 138.283 251.698 160.602 235.373 177.162C219.048 193.721 196.861 203.19 173.61 203.521C150.358 203.852 127.911 195.019 111.12 178.93C94.3303 162.842 84.5468 140.791 83.8854 117.547C83.2234 94.3025 91.7366 71.7315 107.584 54.714C123.432 37.6965 145.34 27.6 168.573 26.6074C170.757 26.5151 172.944 26.5038 175.129 26.5734L175.13 26.5723Z" fill="#999999" fill-opacity="0.992157"/>
</g>
</g>
</svg>
