<svg width="38" height="28" viewBox="0 0 17 13" fill="none" xmlns="http://www.w3.org/2000/svg"  oncontextmenu="return false">
<g id="pumponsvg 1">
<path id="Vector" d="M11.4865 4.94214H11.0951V9.18594H11.4865V4.94214Z" fill="#008200" stroke="black" stroke-width="0.00402479"/>
<path id="Vector_2" d="M16.2171 9.75H15.8938V10.9855H16.2171V9.75Z" fill="#00A800" stroke="black" stroke-width="0.00402479"/>
<path id="Vector_3" d="M15.043 9.75H14.7197V10.9855H15.043V9.75Z" fill="#00A800" stroke="black" stroke-width="0.00402479"/>
<path id="Vector_4" d="M12.2352 9.75H11.9119V10.9855H12.2352V9.75Z" fill="#00A800" stroke="black" stroke-width="0.00402479"/>
<path id="Vector_5" d="M16.081 9.85742H11.7417L11.4184 9.45453V4.59296L11.7417 4.19006H11.7928H11.8779H16.081L16.4724 4.70039L16.5064 4.83469V4.99585V5.13015V9.07849L16.3193 9.72312L16.1661 9.83056L16.081 9.85742Z" fill="#00A800"/>
<path id="Vector_6" d="M16.081 9.34713H11.7417L11.4184 8.94424V4.99589L11.7417 4.70044H11.7928H11.8779H16.081L16.4724 5.13019L16.5064 5.26449V5.39879V5.61366V8.67565L16.2342 9.29341L16.1661 9.34713H16.081Z" fill="#10C710"/>
<path id="Vector_7" d="M16.081 8.62188H11.7417L11.4184 8.32643V5.61362L11.7417 5.39874H11.7928H11.8779H16.081L16.4724 5.6942L16.5064 5.77478V5.82849V6.01651V8.16527L16.1661 8.59502L16.081 8.62188Z" fill="#42D342"/>
<path id="Vector_8" d="M16.081 7.81609H11.7417L11.4184 7.65494V6.4194L11.7417 6.23138H11.7928H11.8779H16.081L16.5064 6.4194V6.47312V6.5537V7.60122V7.62808L16.1661 7.81609H16.081Z" fill="#76DF76"/>
<path id="Vector_9" d="M16.081 9.85742H11.7417L11.4184 9.45453V4.59296L11.7417 4.19006H11.7928H11.8779H16.081L16.4724 4.70039L16.5064 4.83469V4.99585V5.13015V9.07849L16.3193 9.72312L16.1661 9.83056L16.081 9.85742Z" stroke="black" stroke-width="0.00402479"/>
<path id="Vector_10" d="M15.4003 4.24377H11.8779V9.29336H15.4003V4.24377Z" fill="#005A00" stroke="black" stroke-width="0.00402479"/>
<path id="Vector_11" d="M15.4003 9.18597H11.8779V9.91118H15.4003V9.18597Z" fill="#008200" stroke="black" stroke-width="0.00402479"/>
<path id="Vector_12" d="M15.4003 8.56818H11.6736V8.72933H15.4003V8.56818Z" fill="#42D342" stroke="black" stroke-width="0.00402479"/>
<path id="Vector_13" d="M15.4003 8.05786H11.6736V8.21902H15.4003V8.05786Z" fill="#42D342" stroke="black" stroke-width="0.00402479"/>
<path id="Vector_14" d="M15.4003 7.60126H11.6736V7.76241H15.4003V7.60126Z" fill="#42D342" stroke="black" stroke-width="0.00402479"/>
<path id="Vector_15" d="M15.4003 7.09088H11.6736V7.25204H15.4003V7.09088Z" fill="#76DF76" stroke="black" stroke-width="0.00402479"/>
<path id="Vector_16" d="M15.4003 6.63428H11.6736V6.79543H15.4003V6.63428Z" fill="#76DF76" stroke="black" stroke-width="0.00402479"/>
<path id="Vector_17" d="M15.4003 6.12396H11.6736V6.28512H15.4003V6.12396Z" fill="#76DF76" stroke="black" stroke-width="0.00402479"/>
<path id="Vector_18" d="M15.4003 5.61365H11.6736V5.7748H15.4003V5.61365Z" fill="#76DF76" stroke="black" stroke-width="0.00402479"/>
<path id="Vector_19" d="M15.4003 5.15704H11.6736V5.26448H15.4003V5.15704Z" fill="#76DF76" stroke="black" stroke-width="0.00402479"/>
<path id="Vector_20" d="M15.4003 4.64667H11.6736V4.80782H15.4003V4.64667Z" fill="#76DF76" stroke="black" stroke-width="0.00402479"/>
<path id="Vector_21" d="M15.4003 4.13635H11.6736V4.32437H15.4003V4.13635Z" fill="#76DF76" stroke="black" stroke-width="0.00402479"/>
<path id="Vector_22" d="M15.4003 9.07849H11.6736V9.23965H15.4003V9.07849Z" fill="#42D342" stroke="black" stroke-width="0.00402479"/>
<path id="Vector_23" d="M14.8898 9.9649H13.035V5.96283H14.8898V9.9649Z" fill="#10C710" stroke="black" stroke-width="0.00402479"/>
<path id="Vector_24" d="M14.6856 9.74998V6.23138H13.2392" stroke="white" stroke-width="0.00402479"/>
<path id="Vector_25" d="M16.5064 10.9855H1.19125V12.2479H16.5064V10.9855Z" fill="#76DF76" stroke="black" stroke-width="0.00402479"/>
<path id="Vector_26" d="M8.15115 4.02893H4.30534V9.69629H8.15115V4.02893Z" fill="#76DF76" stroke="black" stroke-width="0.00402479"/>
<path id="Vector_27" d="M11.027 9.58887H4.23727V10.9318H11.027V9.58887Z" fill="#008200" stroke="black" stroke-width="0.00402479"/>
<path id="Vector_28" d="M8.04905 4.13635H4.37341V5.66734H8.04905V4.13635Z" fill="#A8EBA8"/>
<path id="Vector_29" d="M4.30534 5.26447H1.90596V8.05785H4.30534V5.26447Z" fill="#76DF76" stroke="black" stroke-width="0.00402479"/>
<path id="Vector_30" d="M4.30534 8.05786H1.90596V10.3141H4.30534V8.05786Z" fill="#10C710" stroke="black" stroke-width="0.00402479"/>
<path id="Vector_31" d="M4.30534 2.49792H1.90596V5.26445H4.30534V2.49792Z" fill="#A8EBA8" stroke="black" stroke-width="0.00402479"/>
<path id="Vector_32" d="M4.30534 10.9855H1.90596V10.314H4.30534V10.9855Z" fill="#00A800" stroke="black" stroke-width="0.00402479"/>
<path id="Vector_33" d="M11.1631 3.30371H8.15115V10.4752H11.1631V3.30371Z" fill="#76DF76" stroke="black" stroke-width="0.00402479"/>
<path id="Vector_34" d="M11.0951 3.41113H8.21922V5.157H11.0951V3.41113Z" fill="#A8EBA8"/>
<path id="Vector_35" d="M8.28729 8.83679H4.52656V10.9856H8.28729V8.83679Z" fill="#42D342" stroke="black" stroke-width="0.00402479"/>
<path id="Vector_36" d="M8.15115 9.07849H4.69672V10.9855H8.15115V9.07849Z" fill="#00A800" stroke="black" stroke-width="0.00402479"/>
<path id="Vector_37" d="M4.30534 0.752075H1.90596V1.26241H4.30534V0.752075Z" fill="#00A800"/>
<path id="Vector_38" d="M4.10113 0.752075H2.12717V1.26241H4.10113V0.752075Z" fill="#10C710"/>
<path id="Vector_39" d="M3.77782 0.752075H2.4505V1.26241H3.77782V0.752075Z" fill="#42D342"/>
<path id="Vector_40" d="M3.45449 0.752075H2.77382V1.26241H3.45449V0.752075Z" fill="#76DF76"/>
<path id="Vector_41" d="M4.30534 0.752075H1.90596V1.26241H4.30534V0.752075Z" stroke="black" stroke-width="0.00402479"/>
<path id="Vector_42" d="M3.84588 1.26239H2.36541V2.49793H3.84588V1.26239Z" fill="#00A800"/>
<path id="Vector_43" d="M3.69273 1.26239H2.51856V2.49793H3.69273V1.26239Z" fill="#10C710"/>
<path id="Vector_44" d="M3.52256 1.26239H2.68874V2.49793H3.52256V1.26239Z" fill="#42D342"/>
<path id="Vector_45" d="M3.30134 1.26239H2.90995V2.49793H3.30134V1.26239Z" fill="#76DF76"/>
<path id="Vector_46" d="M3.84588 1.26239H2.36541V2.49793H3.84588V1.26239Z" stroke="black" stroke-width="0.00402479"/>
<path id="Vector_47" d="M1.19125 4.19006V7.95039H1.90596V4.19006H1.19125Z" fill="#00A800"/>
<path id="Vector_48" d="M1.19125 4.53925V7.60123H1.90596V4.53925H1.19125Z" fill="#10C710"/>
<path id="Vector_49" d="M1.19125 4.99585V7.14461H1.90596V4.99585H1.19125Z" fill="#42D342"/>
<path id="Vector_50" d="M1.19125 5.55994V6.63432H1.90596V5.55994H1.19125Z" fill="#76DF76"/>
<path id="Vector_51" d="M1.19125 4.19006V7.95039H1.90596V4.19006H1.19125Z" stroke="black" stroke-width="0.00402479"/>
<path id="Vector_52" d="M1.6507 4.13635V7.9504" stroke="black" stroke-width="0.00402479"/>
<path id="Vector_53" d="M1.19125 4.94214V7.25206H0.714775V4.94214H1.19125Z" fill="#00A800"/>
<path id="Vector_54" d="M1.19125 5.10333V7.03722H0.714775V5.10333H1.19125Z" fill="#10C710"/>
<path id="Vector_55" d="M1.19125 5.45245V6.74171H0.714775V5.45245H1.19125Z" fill="#42D342"/>
<path id="Vector_56" d="M1.19125 5.72107V6.41942H0.714775V5.72107H1.19125Z" fill="#76DF76"/>
<path id="Vector_57" d="M1.19125 4.94214V7.25206H0.714775V4.94214H1.19125Z" stroke="black" stroke-width="0.00402479"/>
<path id="Vector_58" d="M0.47654 4.59296V7.60122H0.714776V4.59296H0.47654Z" fill="#00A800"/>
<path id="Vector_59" d="M0.47654 4.86157V7.30579H0.714776V4.86157H0.47654Z" fill="#10C710"/>
<path id="Vector_60" d="M0.47654 5.21075V6.9029H0.714776V5.21075H0.47654Z" fill="#42D342"/>
<path id="Vector_61" d="M0.47654 5.66736V6.52686H0.714776V5.66736H0.47654Z" fill="#76DF76"/>
<path id="Vector_62" d="M0.47654 4.59296V7.60122H0.714776V4.59296H0.47654Z" stroke="black" stroke-width="0.00402479"/>
</g>
</svg>
